<svg id="canvas" height="auto" xmlns="http://www.w3.org/2000/svg" version="1.1" xmlns:xlink="http://www.w3.org/1999/xlink" viewBox="0 0 900 512" width="auto" style="width: auto; height: auto;"><rect width="900" height="512" fill="#9b7d7dff"/><path d="M0 -60.92109969790224C30.72 -60.92109969790224 71.67999999999999 0.5189003020977552 102.4 0.5189003020977552S174.07999999999998 -60.92109969790224 204.8 -60.92109969790224S276.48 0.5189003020977552 307.20000000000005 0.5189003020977552S378.88000000000005 -60.92109969790224 409.6 -60.92109969790224S481.28000000000003 0.5189003020977552 512 0.5189003020977552S583.68 -60.92109969790224 614.4 -60.92109969790224S686.0799999999999 0.5189003020977552 716.8 0.5189003020977552S788.4799999999999 -60.92109969790224 819.1999999999999 -60.92109969790224S890.8799999999999 0.5189003020977552 921.5999999999999 0.5189003020977552S993.2799999999999 -60.92109969790224 1023.9999999999999 -60.92109969790224S1095.6799999999998 0.5189003020977552 1126.3999999999999 0.5189003020977552L900 512L0 512Z " fill="#413e4a"/><path d="M0 3.0789003020977574C30.72 3.0789003020977574 71.67999999999999 64.51890030209776 102.4 64.51890030209776S174.07999999999998 3.0789003020977646 204.8 3.0789003020977646S276.48 64.51890030209776 307.20000000000005 64.51890030209776S378.88000000000005 3.0789003020977646 409.6 3.0789003020977646S481.28000000000003 64.51890030209776 512 64.51890030209776S583.68 3.0789003020977646 614.4 3.0789003020977646S686.0799999999999 64.51890030209776 716.8 64.51890030209776S788.4799999999999 3.0789003020977646 819.1999999999999 3.0789003020977646S890.8799999999999 64.51890030209776 921.5999999999999 64.51890030209776S993.2799999999999 3.0789003020977646 1023.9999999999999 3.0789003020977646S1095.6799999999998 64.51890030209776 1126.3999999999999 64.51890030209776L900 512L0 512Z " fill="#73626e"/><path d="M0 67.07890030209776C30.72 67.07890030209776 71.67999999999999 128.51890030209776 102.4 128.51890030209776S174.07999999999998 67.07890030209776 204.8 67.07890030209776S276.48 128.51890030209776 307.20000000000005 128.51890030209776S378.88000000000005 67.07890030209776 409.6 67.07890030209776S481.28000000000003 128.51890030209776 512 128.51890030209776S583.68 67.07890030209776 614.4 67.07890030209776S686.0799999999999 128.51890030209776 716.8 128.51890030209776S788.4799999999999 67.07890030209776 819.1999999999999 67.07890030209776S890.8799999999999 128.51890030209776 921.5999999999999 128.51890030209776S993.2799999999999 67.07890030209776 1023.9999999999999 67.07890030209776S1095.6799999999998 128.51890030209776 1126.3999999999999 128.51890030209776L900 512L0 512Z " fill="#b38184"/><path d="M0 131.07890030209776C30.72 131.07890030209776 71.67999999999999 192.51890030209776 102.4 192.51890030209776S174.07999999999998 131.07890030209776 204.8 131.07890030209776S276.48 192.51890030209776 307.20000000000005 192.51890030209776S378.88000000000005 131.07890030209776 409.6 131.07890030209776S481.28000000000003 192.51890030209776 512 192.51890030209776S583.68 131.07890030209776 614.4 131.07890030209776S686.0799999999999 192.51890030209776 716.8 192.51890030209776S788.4799999999999 131.07890030209776 819.1999999999999 131.07890030209776S890.8799999999999 192.51890030209776 921.5999999999999 192.51890030209776S993.2799999999999 131.07890030209776 1023.9999999999999 131.07890030209776S1095.6799999999998 192.51890030209776 1126.3999999999999 192.51890030209776L900 512L0 512Z " fill="#f0b49e"/><path d="M0 195.07890030209776C30.72 195.07890030209776 71.67999999999999 256.5189003020978 102.4 256.5189003020978S174.07999999999998 195.0789003020978 204.8 195.0789003020978S276.48 256.5189003020978 307.20000000000005 256.5189003020978S378.88000000000005 195.0789003020978 409.6 195.0789003020978S481.28000000000003 256.5189003020978 512 256.5189003020978S583.68 195.0789003020978 614.4 195.0789003020978S686.0799999999999 256.5189003020978 716.8 256.5189003020978S788.4799999999999 195.0789003020978 819.1999999999999 195.0789003020978S890.8799999999999 256.5189003020978 921.5999999999999 256.5189003020978S993.2799999999999 195.0789003020978 1023.9999999999999 195.0789003020978S1095.6799999999998 256.5189003020978 1126.3999999999999 256.5189003020978L900 512L0 512Z " fill="#f7e4be"/><path d="M0 259.07890030209774C30.72 259.07890030209774 71.67999999999999 320.51890030209773 102.4 320.51890030209773S174.07999999999998 259.07890030209774 204.8 259.07890030209774S276.48 320.51890030209773 307.20000000000005 320.51890030209773S378.88000000000005 259.07890030209774 409.6 259.07890030209774S481.28000000000003 320.51890030209773 512 320.51890030209773S583.68 259.07890030209774 614.4 259.07890030209774S686.0799999999999 320.51890030209773 716.8 320.51890030209773S788.4799999999999 259.07890030209774 819.1999999999999 259.07890030209774S890.8799999999999 320.51890030209773 921.5999999999999 320.51890030209773S993.2799999999999 259.07890030209774 1023.9999999999999 259.07890030209774S1095.6799999999998 320.51890030209773 1126.3999999999999 320.51890030209773L900 512L0 512Z " fill="#413e4a"/><path d="M0 323.07890030209774C30.72 323.07890030209774 71.67999999999999 384.51890030209773 102.4 384.51890030209773S174.07999999999998 323.07890030209774 204.8 323.07890030209774S276.48 384.51890030209773 307.20000000000005 384.51890030209773S378.88000000000005 323.07890030209774 409.6 323.07890030209774S481.28000000000003 384.51890030209773 512 384.51890030209773S583.68 323.07890030209774 614.4 323.07890030209774S686.0799999999999 384.51890030209773 716.8 384.51890030209773S788.4799999999999 323.07890030209774 819.1999999999999 323.07890030209774S890.8799999999999 384.51890030209773 921.5999999999999 384.51890030209773S993.2799999999999 323.07890030209774 1023.9999999999999 323.07890030209774S1095.6799999999998 384.51890030209773 1126.3999999999999 384.51890030209773L900 512L0 512Z " fill="#73626e"/><path d="M0 387.07890030209774C30.72 387.07890030209774 71.67999999999999 448.51890030209773 102.4 448.51890030209773S174.07999999999998 387.07890030209774 204.8 387.07890030209774S276.48 448.51890030209773 307.20000000000005 448.51890030209773S378.88000000000005 387.07890030209774 409.6 387.07890030209774S481.28000000000003 448.51890030209773 512 448.51890030209773S583.68 387.07890030209774 614.4 387.07890030209774S686.0799999999999 448.51890030209773 716.8 448.51890030209773S788.4799999999999 387.07890030209774 819.1999999999999 387.07890030209774S890.8799999999999 448.51890030209773 921.5999999999999 448.51890030209773S993.2799999999999 387.07890030209774 1023.9999999999999 387.07890030209774S1095.6799999999998 448.51890030209773 1126.3999999999999 448.51890030209773L900 512L0 512Z " fill="#b38184"/><path d="M0 451.07890030209774C30.72 451.07890030209774 71.67999999999999 512.5189003020978 102.4 512.5189003020978S174.07999999999998 451.0789003020978 204.8 451.0789003020978S276.48 512.5189003020978 307.20000000000005 512.5189003020978S378.88000000000005 451.0789003020978 409.6 451.0789003020978S481.28000000000003 512.5189003020978 512 512.5189003020978S583.68 451.0789003020978 614.4 451.0789003020978S686.0799999999999 512.5189003020978 716.8 512.5189003020978S788.4799999999999 451.0789003020978 819.1999999999999 451.0789003020978S890.8799999999999 512.5189003020978 921.5999999999999 512.5189003020978S993.2799999999999 451.0789003020978 1023.9999999999999 451.0789003020978S1095.6799999999998 512.5189003020978 1126.3999999999999 512.5189003020978L900 512L0 512Z " fill="#f0b49e"/><path d="M0 515.0789003020977C30.72 515.0789003020977 71.67999999999999 576.5189003020978 102.4 576.5189003020978S174.07999999999998 515.0789003020977 204.8 515.0789003020977S276.48 576.5189003020978 307.20000000000005 576.5189003020978S378.88000000000005 515.0789003020977 409.6 515.0789003020977S481.28000000000003 576.5189003020978 512 576.5189003020978S583.68 515.0789003020977 614.4 515.0789003020977S686.0799999999999 576.5189003020978 716.8 576.5189003020978S788.4799999999999 515.0789003020977 819.1999999999999 515.0789003020977S890.8799999999999 576.5189003020978 921.5999999999999 576.5189003020978S993.2799999999999 515.0789003020977 1023.9999999999999 515.0789003020977S1095.6799999999998 576.5189003020978 1126.3999999999999 576.5189003020978L900 512L0 512Z " fill="#f7e4be"/><path d="M0 579.0789003020977C30.72 579.0789003020977 71.67999999999999 640.5189003020978 102.4 640.5189003020978S174.07999999999998 579.0789003020977 204.8 579.0789003020977S276.48 640.5189003020978 307.20000000000005 640.5189003020978S378.88000000000005 579.0789003020977 409.6 579.0789003020977S481.28000000000003 640.5189003020978 512 640.5189003020978S583.68 579.0789003020977 614.4 579.0789003020977S686.0799999999999 640.5189003020978 716.8 640.5189003020978S788.4799999999999 579.0789003020977 819.1999999999999 579.0789003020977S890.8799999999999 640.5189003020978 921.5999999999999 640.5189003020978S993.2799999999999 579.0789003020977 1023.9999999999999 579.0789003020977S1095.6799999999998 640.5189003020978 1126.3999999999999 640.5189003020978L900 512L0 512Z " fill="#413e4a"/><path d="M0 643.0789003020977C30.72 643.0789003020977 71.67999999999999 704.5189003020978 102.4 704.5189003020978S174.07999999999998 643.0789003020977 204.8 643.0789003020977S276.48 704.5189003020978 307.20000000000005 704.5189003020978S378.88000000000005 643.0789003020977 409.6 643.0789003020977S481.28000000000003 704.5189003020978 512 704.5189003020978S583.68 643.0789003020977 614.4 643.0789003020977S686.0799999999999 704.5189003020978 716.8 704.5189003020978S788.4799999999999 643.0789003020977 819.1999999999999 643.0789003020977S890.8799999999999 704.5189003020978 921.5999999999999 704.5189003020978S993.2799999999999 643.0789003020977 1023.9999999999999 643.0789003020977S1095.6799999999998 704.5189003020978 1126.3999999999999 704.5189003020978L900 512L0 512Z " fill="#73626e"/></svg>