<svg id="canvas" height="auto" xmlns="http://www.w3.org/2000/svg" version="1.1" xmlns:xlink="http://www.w3.org/1999/xlink" viewBox="0 0 1200 1200" width="auto" style="width: auto; height: auto;"><rect width="1200" height="1200" fill="transparent"/><mask id="mask" mask-type="alpha" maskUnits="userSpaceOnUse"><rect transform="translate(0, 0)" width="1200" height="1200" fill="white"/></mask><svg><path transform="translate(0, 0) scale(0.5)" d="M60 59.985C60.008 26.855 86.868 0 120 0v120c-33.132 0-59.992-26.855-60-59.985C59.992 93.145 33.132 120 0 120V0c33.132 0 59.992 26.855 60 59.985z" fill="#227c9d"/></svg><svg><path transform="translate(0, 60) scale(0.5)" d="M59.985 60C26.855 59.992 0 33.132 0 0h120c0 33.132-26.855 59.992-59.985 60C93.145 60.008 120 86.868 120 120H0c0-33.132 26.855-59.992 59.985-60z" fill="#17c3b2"/></svg><svg><path transform="translate(0, 120) scale(0.5)" d="M60 59.985C60.008 26.855 86.868 0 120 0v120c-33.132 0-59.992-26.855-60-59.985C59.992 93.145 33.132 120 0 120V0c33.132 0 59.992 26.855 60 59.985z" fill="#17c3b2"/></svg><svg><path transform="translate(0, 180) scale(0.5)" d="M59.985 60C26.855 59.992 0 33.132 0 0h120c0 33.132-26.855 59.992-59.985 60C93.145 60.008 120 86.868 120 120H0c0-33.132 26.855-59.992 59.985-60z" fill="#fe6d73"/></svg><svg><path transform="translate(0, 300) scale(0.5)" d="M60 59.985C60.008 26.855 86.868 0 120 0v120c-33.132 0-59.992-26.855-60-59.985C59.992 93.145 33.132 120 0 120V0c33.132 0 59.992 26.855 60 59.985z" fill="#fef9ef"/></svg><svg><path transform="translate(0, 360) scale(0.5)" d="M59.985 60C26.855 59.992 0 33.132 0 0h120c0 33.132-26.855 59.992-59.985 60C93.145 60.008 120 86.868 120 120H0c0-33.132 26.855-59.992 59.985-60z" fill="#fef9ef"/></svg><svg><path transform="translate(0, 420) scale(0.5)" d="M59.985 60C26.855 59.992 0 33.132 0 0h120c0 33.132-26.855 59.992-59.985 60C93.145 60.008 120 86.868 120 120H0c0-33.132 26.855-59.992 59.985-60z" fill="#fef9ef"/></svg><svg><path transform="translate(0, 480) scale(0.5)" d="M60 59.985C60.008 26.855 86.868 0 120 0v120c-33.132 0-59.992-26.855-60-59.985C59.992 93.145 33.132 120 0 120V0c33.132 0 59.992 26.855 60 59.985z" fill="#227c9d"/></svg><svg><path transform="translate(0, 540) scale(0.5)" d="M60 59.985C60.008 26.855 86.868 0 120 0v120c-33.132 0-59.992-26.855-60-59.985C59.992 93.145 33.132 120 0 120V0c33.132 0 59.992 26.855 60 59.985z" fill="#fe6d73"/></svg><svg><path transform="translate(0, 600) scale(0.5)" d="M59.985 60C26.855 59.992 0 33.132 0 0h120c0 33.132-26.855 59.992-59.985 60C93.145 60.008 120 86.868 120 120H0c0-33.132 26.855-59.992 59.985-60z" fill="#17c3b2"/></svg><svg><path transform="translate(0, 660) scale(0.5)" d="M59.985 60C26.855 59.992 0 33.132 0 0h120c0 33.132-26.855 59.992-59.985 60C93.145 60.008 120 86.868 120 120H0c0-33.132 26.855-59.992 59.985-60z" fill="#17c3b2"/></svg><svg><path transform="translate(0, 720) scale(0.5)" d="M60 59.985C60.008 26.855 86.868 0 120 0v120c-33.132 0-59.992-26.855-60-59.985C59.992 93.145 33.132 120 0 120V0c33.132 0 59.992 26.855 60 59.985z" fill="#fef9ef"/></svg><svg><path transform="translate(0, 780) scale(0.5)" d="M59.985 60C26.855 59.992 0 33.132 0 0h120c0 33.132-26.855 59.992-59.985 60C93.145 60.008 120 86.868 120 120H0c0-33.132 26.855-59.992 59.985-60z" fill="#17c3b2"/></svg><svg><path transform="translate(0, 900) scale(0.5)" d="M60 59.985C60.008 26.855 86.868 0 120 0v120c-33.132 0-59.992-26.855-60-59.985C59.992 93.145 33.132 120 0 120V0c33.132 0 59.992 26.855 60 59.985z" fill="#fef9ef"/></svg><svg><path transform="translate(0, 1080) scale(0.5)" d="M60 59.985C60.008 26.855 86.868 0 120 0v120c-33.132 0-59.992-26.855-60-59.985C59.992 93.145 33.132 120 0 120V0c33.132 0 59.992 26.855 60 59.985z" fill="#ffcb77"/></svg><svg><path transform="translate(0, 1140) scale(0.5)" d="M59.985 60C26.855 59.992 0 33.132 0 0h120c0 33.132-26.855 59.992-59.985 60C93.145 60.008 120 86.868 120 120H0c0-33.132 26.855-59.992 59.985-60z" fill="#fef9ef"/></svg><svg><path transform="translate(60, 60) scale(0.5)" d="M60 59.985C60.008 26.855 86.868 0 120 0v120c-33.132 0-59.992-26.855-60-59.985C59.992 93.145 33.132 120 0 120V0c33.132 0 59.992 26.855 60 59.985z" fill="#17c3b2"/></svg><svg><path transform="translate(60, 120) scale(0.5)" d="M60 59.985C60.008 26.855 86.868 0 120 0v120c-33.132 0-59.992-26.855-60-59.985C59.992 93.145 33.132 120 0 120V0c33.132 0 59.992 26.855 60 59.985z" fill="#ffcb77"/></svg><svg><path transform="translate(60, 180) scale(0.5)" d="M60 59.985C60.008 26.855 86.868 0 120 0v120c-33.132 0-59.992-26.855-60-59.985C59.992 93.145 33.132 120 0 120V0c33.132 0 59.992 26.855 60 59.985z" fill="#17c3b2"/></svg><svg><path transform="translate(60, 300) scale(0.5)" d="M60 59.985C60.008 26.855 86.868 0 120 0v120c-33.132 0-59.992-26.855-60-59.985C59.992 93.145 33.132 120 0 120V0c33.132 0 59.992 26.855 60 59.985z" fill="#fe6d73"/></svg><svg><path transform="translate(60, 360) scale(0.5)" d="M59.985 60C26.855 59.992 0 33.132 0 0h120c0 33.132-26.855 59.992-59.985 60C93.145 60.008 120 86.868 120 120H0c0-33.132 26.855-59.992 59.985-60z" fill="#fef9ef"/></svg><svg><path transform="translate(60, 420) scale(0.5)" d="M59.985 60C26.855 59.992 0 33.132 0 0h120c0 33.132-26.855 59.992-59.985 60C93.145 60.008 120 86.868 120 120H0c0-33.132 26.855-59.992 59.985-60z" fill="#fef9ef"/></svg><svg><path transform="translate(60, 480) scale(0.5)" d="M60 59.985C60.008 26.855 86.868 0 120 0v120c-33.132 0-59.992-26.855-60-59.985C59.992 93.145 33.132 120 0 120V0c33.132 0 59.992 26.855 60 59.985z" fill="#ffcb77"/></svg><svg><path transform="translate(60, 600) scale(0.5)" d="M59.985 60C26.855 59.992 0 33.132 0 0h120c0 33.132-26.855 59.992-59.985 60C93.145 60.008 120 86.868 120 120H0c0-33.132 26.855-59.992 59.985-60z" fill="#fef9ef"/></svg><svg><path transform="translate(60, 720) scale(0.5)" d="M59.985 60C26.855 59.992 0 33.132 0 0h120c0 33.132-26.855 59.992-59.985 60C93.145 60.008 120 86.868 120 120H0c0-33.132 26.855-59.992 59.985-60z" fill="#227c9d"/></svg><svg><path transform="translate(60, 840) scale(0.5)" d="M60 59.985C60.008 26.855 86.868 0 120 0v120c-33.132 0-59.992-26.855-60-59.985C59.992 93.145 33.132 120 0 120V0c33.132 0 59.992 26.855 60 59.985z" fill="#ffcb77"/></svg><svg><path transform="translate(60, 900) scale(0.5)" d="M60 59.985C60.008 26.855 86.868 0 120 0v120c-33.132 0-59.992-26.855-60-59.985C59.992 93.145 33.132 120 0 120V0c33.132 0 59.992 26.855 60 59.985z" fill="#fef9ef"/></svg><svg><path transform="translate(60, 960) scale(0.5)" d="M59.985 60C26.855 59.992 0 33.132 0 0h120c0 33.132-26.855 59.992-59.985 60C93.145 60.008 120 86.868 120 120H0c0-33.132 26.855-59.992 59.985-60z" fill="#17c3b2"/></svg><svg><path transform="translate(60, 1020) scale(0.5)" d="M60 59.985C60.008 26.855 86.868 0 120 0v120c-33.132 0-59.992-26.855-60-59.985C59.992 93.145 33.132 120 0 120V0c33.132 0 59.992 26.855 60 59.985z" fill="#17c3b2"/></svg><svg><path transform="translate(60, 1140) scale(0.5)" d="M59.985 60C26.855 59.992 0 33.132 0 0h120c0 33.132-26.855 59.992-59.985 60C93.145 60.008 120 86.868 120 120H0c0-33.132 26.855-59.992 59.985-60z" fill="#17c3b2"/></svg><svg><path transform="translate(120, 0) scale(0.5)" d="M59.985 60C26.855 59.992 0 33.132 0 0h120c0 33.132-26.855 59.992-59.985 60C93.145 60.008 120 86.868 120 120H0c0-33.132 26.855-59.992 59.985-60z" fill="#227c9d"/></svg><svg><path transform="translate(120, 120) scale(0.5)" d="M60 59.985C60.008 26.855 86.868 0 120 0v120c-33.132 0-59.992-26.855-60-59.985C59.992 93.145 33.132 120 0 120V0c33.132 0 59.992 26.855 60 59.985z" fill="#fef9ef"/></svg><svg><path transform="translate(120, 180) scale(0.5)" d="M59.985 60C26.855 59.992 0 33.132 0 0h120c0 33.132-26.855 59.992-59.985 60C93.145 60.008 120 86.868 120 120H0c0-33.132 26.855-59.992 59.985-60z" fill="#fef9ef"/></svg><svg><path transform="translate(120, 240) scale(0.5)" d="M60 59.985C60.008 26.855 86.868 0 120 0v120c-33.132 0-59.992-26.855-60-59.985C59.992 93.145 33.132 120 0 120V0c33.132 0 59.992 26.855 60 59.985z" fill="#ffcb77"/></svg><svg><path transform="translate(120, 300) scale(0.5)" d="M59.985 60C26.855 59.992 0 33.132 0 0h120c0 33.132-26.855 59.992-59.985 60C93.145 60.008 120 86.868 120 120H0c0-33.132 26.855-59.992 59.985-60z" fill="#ffcb77"/></svg><svg><path transform="translate(120, 360) scale(0.5)" d="M60 59.985C60.008 26.855 86.868 0 120 0v120c-33.132 0-59.992-26.855-60-59.985C59.992 93.145 33.132 120 0 120V0c33.132 0 59.992 26.855 60 59.985z" fill="#17c3b2"/></svg><svg><path transform="translate(120, 420) scale(0.5)" d="M60 59.985C60.008 26.855 86.868 0 120 0v120c-33.132 0-59.992-26.855-60-59.985C59.992 93.145 33.132 120 0 120V0c33.132 0 59.992 26.855 60 59.985z" fill="#ffcb77"/></svg><svg><path transform="translate(120, 480) scale(0.5)" d="M59.985 60C26.855 59.992 0 33.132 0 0h120c0 33.132-26.855 59.992-59.985 60C93.145 60.008 120 86.868 120 120H0c0-33.132 26.855-59.992 59.985-60z" fill="#17c3b2"/></svg><svg><path transform="translate(120, 600) scale(0.5)" d="M60 59.985C60.008 26.855 86.868 0 120 0v120c-33.132 0-59.992-26.855-60-59.985C59.992 93.145 33.132 120 0 120V0c33.132 0 59.992 26.855 60 59.985z" fill="#fe6d73"/></svg><svg><path transform="translate(120, 660) scale(0.5)" d="M59.985 60C26.855 59.992 0 33.132 0 0h120c0 33.132-26.855 59.992-59.985 60C93.145 60.008 120 86.868 120 120H0c0-33.132 26.855-59.992 59.985-60z" fill="#227c9d"/></svg><svg><path transform="translate(120, 720) scale(0.5)" d="M60 59.985C60.008 26.855 86.868 0 120 0v120c-33.132 0-59.992-26.855-60-59.985C59.992 93.145 33.132 120 0 120V0c33.132 0 59.992 26.855 60 59.985z" fill="#227c9d"/></svg><svg><path transform="translate(120, 840) scale(0.5)" d="M60 59.985C60.008 26.855 86.868 0 120 0v120c-33.132 0-59.992-26.855-60-59.985C59.992 93.145 33.132 120 0 120V0c33.132 0 59.992 26.855 60 59.985z" fill="#17c3b2"/></svg><svg><path transform="translate(120, 900) scale(0.5)" d="M59.985 60C26.855 59.992 0 33.132 0 0h120c0 33.132-26.855 59.992-59.985 60C93.145 60.008 120 86.868 120 120H0c0-33.132 26.855-59.992 59.985-60z" fill="#ffcb77"/></svg><svg><path transform="translate(120, 960) scale(0.5)" d="M59.985 60C26.855 59.992 0 33.132 0 0h120c0 33.132-26.855 59.992-59.985 60C93.145 60.008 120 86.868 120 120H0c0-33.132 26.855-59.992 59.985-60z" fill="#fef9ef"/></svg><svg><path transform="translate(120, 1020) scale(0.5)" d="M59.985 60C26.855 59.992 0 33.132 0 0h120c0 33.132-26.855 59.992-59.985 60C93.145 60.008 120 86.868 120 120H0c0-33.132 26.855-59.992 59.985-60z" fill="#17c3b2"/></svg><svg><path transform="translate(120, 1080) scale(0.5)" d="M59.985 60C26.855 59.992 0 33.132 0 0h120c0 33.132-26.855 59.992-59.985 60C93.145 60.008 120 86.868 120 120H0c0-33.132 26.855-59.992 59.985-60z" fill="#fef9ef"/></svg><svg><path transform="translate(120, 1140) scale(0.5)" d="M59.985 60C26.855 59.992 0 33.132 0 0h120c0 33.132-26.855 59.992-59.985 60C93.145 60.008 120 86.868 120 120H0c0-33.132 26.855-59.992 59.985-60z" fill="#227c9d"/></svg><svg><path transform="translate(180, 60) scale(0.5)" d="M60 59.985C60.008 26.855 86.868 0 120 0v120c-33.132 0-59.992-26.855-60-59.985C59.992 93.145 33.132 120 0 120V0c33.132 0 59.992 26.855 60 59.985z" fill="#227c9d"/></svg><svg><path transform="translate(180, 180) scale(0.5)" d="M60 59.985C60.008 26.855 86.868 0 120 0v120c-33.132 0-59.992-26.855-60-59.985C59.992 93.145 33.132 120 0 120V0c33.132 0 59.992 26.855 60 59.985z" fill="#fe6d73"/></svg><svg><path transform="translate(180, 300) scale(0.5)" d="M59.985 60C26.855 59.992 0 33.132 0 0h120c0 33.132-26.855 59.992-59.985 60C93.145 60.008 120 86.868 120 120H0c0-33.132 26.855-59.992 59.985-60z" fill="#fe6d73"/></svg><svg><path transform="translate(180, 360) scale(0.5)" d="M60 59.985C60.008 26.855 86.868 0 120 0v120c-33.132 0-59.992-26.855-60-59.985C59.992 93.145 33.132 120 0 120V0c33.132 0 59.992 26.855 60 59.985z" fill="#ffcb77"/></svg><svg><path transform="translate(180, 420) scale(0.5)" d="M59.985 60C26.855 59.992 0 33.132 0 0h120c0 33.132-26.855 59.992-59.985 60C93.145 60.008 120 86.868 120 120H0c0-33.132 26.855-59.992 59.985-60z" fill="#fef9ef"/></svg><svg><path transform="translate(180, 540) scale(0.5)" d="M60 59.985C60.008 26.855 86.868 0 120 0v120c-33.132 0-59.992-26.855-60-59.985C59.992 93.145 33.132 120 0 120V0c33.132 0 59.992 26.855 60 59.985z" fill="#fef9ef"/></svg><svg><path transform="translate(180, 660) scale(0.5)" d="M60 59.985C60.008 26.855 86.868 0 120 0v120c-33.132 0-59.992-26.855-60-59.985C59.992 93.145 33.132 120 0 120V0c33.132 0 59.992 26.855 60 59.985z" fill="#ffcb77"/></svg><svg><path transform="translate(180, 720) scale(0.5)" d="M60 59.985C60.008 26.855 86.868 0 120 0v120c-33.132 0-59.992-26.855-60-59.985C59.992 93.145 33.132 120 0 120V0c33.132 0 59.992 26.855 60 59.985z" fill="#fef9ef"/></svg><svg><path transform="translate(180, 780) scale(0.5)" d="M60 59.985C60.008 26.855 86.868 0 120 0v120c-33.132 0-59.992-26.855-60-59.985C59.992 93.145 33.132 120 0 120V0c33.132 0 59.992 26.855 60 59.985z" fill="#17c3b2"/></svg><svg><path transform="translate(180, 840) scale(0.5)" d="M59.985 60C26.855 59.992 0 33.132 0 0h120c0 33.132-26.855 59.992-59.985 60C93.145 60.008 120 86.868 120 120H0c0-33.132 26.855-59.992 59.985-60z" fill="#fe6d73"/></svg><svg><path transform="translate(180, 960) scale(0.5)" d="M60 59.985C60.008 26.855 86.868 0 120 0v120c-33.132 0-59.992-26.855-60-59.985C59.992 93.145 33.132 120 0 120V0c33.132 0 59.992 26.855 60 59.985z" fill="#fef9ef"/></svg><svg><path transform="translate(240, 0) scale(0.5)" d="M60 59.985C60.008 26.855 86.868 0 120 0v120c-33.132 0-59.992-26.855-60-59.985C59.992 93.145 33.132 120 0 120V0c33.132 0 59.992 26.855 60 59.985z" fill="#ffcb77"/></svg><svg><path transform="translate(240, 60) scale(0.5)" d="M60 59.985C60.008 26.855 86.868 0 120 0v120c-33.132 0-59.992-26.855-60-59.985C59.992 93.145 33.132 120 0 120V0c33.132 0 59.992 26.855 60 59.985z" fill="#fef9ef"/></svg><svg><path transform="translate(240, 120) scale(0.5)" d="M59.985 60C26.855 59.992 0 33.132 0 0h120c0 33.132-26.855 59.992-59.985 60C93.145 60.008 120 86.868 120 120H0c0-33.132 26.855-59.992 59.985-60z" fill="#fef9ef"/></svg><svg><path transform="translate(240, 300) scale(0.5)" d="M60 59.985C60.008 26.855 86.868 0 120 0v120c-33.132 0-59.992-26.855-60-59.985C59.992 93.145 33.132 120 0 120V0c33.132 0 59.992 26.855 60 59.985z" fill="#227c9d"/></svg><svg><path transform="translate(240, 360) scale(0.5)" d="M60 59.985C60.008 26.855 86.868 0 120 0v120c-33.132 0-59.992-26.855-60-59.985C59.992 93.145 33.132 120 0 120V0c33.132 0 59.992 26.855 60 59.985z" fill="#17c3b2"/></svg><svg><path transform="translate(240, 420) scale(0.5)" d="M60 59.985C60.008 26.855 86.868 0 120 0v120c-33.132 0-59.992-26.855-60-59.985C59.992 93.145 33.132 120 0 120V0c33.132 0 59.992 26.855 60 59.985z" fill="#ffcb77"/></svg><svg><path transform="translate(240, 480) scale(0.5)" d="M60 59.985C60.008 26.855 86.868 0 120 0v120c-33.132 0-59.992-26.855-60-59.985C59.992 93.145 33.132 120 0 120V0c33.132 0 59.992 26.855 60 59.985z" fill="#17c3b2"/></svg><svg><path transform="translate(240, 540) scale(0.5)" d="M60 59.985C60.008 26.855 86.868 0 120 0v120c-33.132 0-59.992-26.855-60-59.985C59.992 93.145 33.132 120 0 120V0c33.132 0 59.992 26.855 60 59.985z" fill="#fef9ef"/></svg><svg><path transform="translate(240, 600) scale(0.5)" d="M60 59.985C60.008 26.855 86.868 0 120 0v120c-33.132 0-59.992-26.855-60-59.985C59.992 93.145 33.132 120 0 120V0c33.132 0 59.992 26.855 60 59.985z" fill="#17c3b2"/></svg><svg><path transform="translate(240, 660) scale(0.5)" d="M60 59.985C60.008 26.855 86.868 0 120 0v120c-33.132 0-59.992-26.855-60-59.985C59.992 93.145 33.132 120 0 120V0c33.132 0 59.992 26.855 60 59.985z" fill="#fef9ef"/></svg><svg><path transform="translate(240, 720) scale(0.5)" d="M60 59.985C60.008 26.855 86.868 0 120 0v120c-33.132 0-59.992-26.855-60-59.985C59.992 93.145 33.132 120 0 120V0c33.132 0 59.992 26.855 60 59.985z" fill="#ffcb77"/></svg><svg><path transform="translate(240, 780) scale(0.5)" d="M60 59.985C60.008 26.855 86.868 0 120 0v120c-33.132 0-59.992-26.855-60-59.985C59.992 93.145 33.132 120 0 120V0c33.132 0 59.992 26.855 60 59.985z" fill="#fef9ef"/></svg><svg><path transform="translate(240, 840) scale(0.5)" d="M60 59.985C60.008 26.855 86.868 0 120 0v120c-33.132 0-59.992-26.855-60-59.985C59.992 93.145 33.132 120 0 120V0c33.132 0 59.992 26.855 60 59.985z" fill="#227c9d"/></svg><svg><path transform="translate(240, 900) scale(0.5)" d="M60 59.985C60.008 26.855 86.868 0 120 0v120c-33.132 0-59.992-26.855-60-59.985C59.992 93.145 33.132 120 0 120V0c33.132 0 59.992 26.855 60 59.985z" fill="#fef9ef"/></svg><svg><path transform="translate(240, 960) scale(0.5)" d="M60 59.985C60.008 26.855 86.868 0 120 0v120c-33.132 0-59.992-26.855-60-59.985C59.992 93.145 33.132 120 0 120V0c33.132 0 59.992 26.855 60 59.985z" fill="#ffcb77"/></svg><svg><path transform="translate(240, 1080) scale(0.5)" d="M59.985 60C26.855 59.992 0 33.132 0 0h120c0 33.132-26.855 59.992-59.985 60C93.145 60.008 120 86.868 120 120H0c0-33.132 26.855-59.992 59.985-60z" fill="#17c3b2"/></svg><svg><path transform="translate(240, 1140) scale(0.5)" d="M59.985 60C26.855 59.992 0 33.132 0 0h120c0 33.132-26.855 59.992-59.985 60C93.145 60.008 120 86.868 120 120H0c0-33.132 26.855-59.992 59.985-60z" fill="#fe6d73"/></svg><svg><path transform="translate(300, 0) scale(0.5)" d="M60 59.985C60.008 26.855 86.868 0 120 0v120c-33.132 0-59.992-26.855-60-59.985C59.992 93.145 33.132 120 0 120V0c33.132 0 59.992 26.855 60 59.985z" fill="#17c3b2"/></svg><svg><path transform="translate(300, 60) scale(0.5)" d="M59.985 60C26.855 59.992 0 33.132 0 0h120c0 33.132-26.855 59.992-59.985 60C93.145 60.008 120 86.868 120 120H0c0-33.132 26.855-59.992 59.985-60z" fill="#fef9ef"/></svg><svg><path transform="translate(300, 300) scale(0.5)" d="M59.985 60C26.855 59.992 0 33.132 0 0h120c0 33.132-26.855 59.992-59.985 60C93.145 60.008 120 86.868 120 120H0c0-33.132 26.855-59.992 59.985-60z" fill="#ffcb77"/></svg><svg><path transform="translate(300, 360) scale(0.5)" d="M59.985 60C26.855 59.992 0 33.132 0 0h120c0 33.132-26.855 59.992-59.985 60C93.145 60.008 120 86.868 120 120H0c0-33.132 26.855-59.992 59.985-60z" fill="#fef9ef"/></svg><svg><path transform="translate(300, 480) scale(0.5)" d="M59.985 60C26.855 59.992 0 33.132 0 0h120c0 33.132-26.855 59.992-59.985 60C93.145 60.008 120 86.868 120 120H0c0-33.132 26.855-59.992 59.985-60z" fill="#fef9ef"/></svg><svg><path transform="translate(300, 540) scale(0.5)" d="M60 59.985C60.008 26.855 86.868 0 120 0v120c-33.132 0-59.992-26.855-60-59.985C59.992 93.145 33.132 120 0 120V0c33.132 0 59.992 26.855 60 59.985z" fill="#fe6d73"/></svg><svg><path transform="translate(300, 600) scale(0.5)" d="M60 59.985C60.008 26.855 86.868 0 120 0v120c-33.132 0-59.992-26.855-60-59.985C59.992 93.145 33.132 120 0 120V0c33.132 0 59.992 26.855 60 59.985z" fill="#17c3b2"/></svg><svg><path transform="translate(300, 660) scale(0.5)" d="M59.985 60C26.855 59.992 0 33.132 0 0h120c0 33.132-26.855 59.992-59.985 60C93.145 60.008 120 86.868 120 120H0c0-33.132 26.855-59.992 59.985-60z" fill="#ffcb77"/></svg><svg><path transform="translate(300, 720) scale(0.5)" d="M60 59.985C60.008 26.855 86.868 0 120 0v120c-33.132 0-59.992-26.855-60-59.985C59.992 93.145 33.132 120 0 120V0c33.132 0 59.992 26.855 60 59.985z" fill="#227c9d"/></svg><svg><path transform="translate(300, 780) scale(0.5)" d="M59.985 60C26.855 59.992 0 33.132 0 0h120c0 33.132-26.855 59.992-59.985 60C93.145 60.008 120 86.868 120 120H0c0-33.132 26.855-59.992 59.985-60z" fill="#ffcb77"/></svg><svg><path transform="translate(300, 840) scale(0.5)" d="M59.985 60C26.855 59.992 0 33.132 0 0h120c0 33.132-26.855 59.992-59.985 60C93.145 60.008 120 86.868 120 120H0c0-33.132 26.855-59.992 59.985-60z" fill="#ffcb77"/></svg><svg><path transform="translate(300, 900) scale(0.5)" d="M60 59.985C60.008 26.855 86.868 0 120 0v120c-33.132 0-59.992-26.855-60-59.985C59.992 93.145 33.132 120 0 120V0c33.132 0 59.992 26.855 60 59.985z" fill="#227c9d"/></svg><svg><path transform="translate(300, 960) scale(0.5)" d="M60 59.985C60.008 26.855 86.868 0 120 0v120c-33.132 0-59.992-26.855-60-59.985C59.992 93.145 33.132 120 0 120V0c33.132 0 59.992 26.855 60 59.985z" fill="#17c3b2"/></svg><svg><path transform="translate(300, 1020) scale(0.5)" d="M59.985 60C26.855 59.992 0 33.132 0 0h120c0 33.132-26.855 59.992-59.985 60C93.145 60.008 120 86.868 120 120H0c0-33.132 26.855-59.992 59.985-60z" fill="#17c3b2"/></svg><svg><path transform="translate(360, 60) scale(0.5)" d="M60 59.985C60.008 26.855 86.868 0 120 0v120c-33.132 0-59.992-26.855-60-59.985C59.992 93.145 33.132 120 0 120V0c33.132 0 59.992 26.855 60 59.985z" fill="#fef9ef"/></svg><svg><path transform="translate(360, 120) scale(0.5)" d="M59.985 60C26.855 59.992 0 33.132 0 0h120c0 33.132-26.855 59.992-59.985 60C93.145 60.008 120 86.868 120 120H0c0-33.132 26.855-59.992 59.985-60z" fill="#227c9d"/></svg><svg><path transform="translate(360, 240) scale(0.5)" d="M59.985 60C26.855 59.992 0 33.132 0 0h120c0 33.132-26.855 59.992-59.985 60C93.145 60.008 120 86.868 120 120H0c0-33.132 26.855-59.992 59.985-60z" fill="#17c3b2"/></svg><svg><path transform="translate(360, 480) scale(0.5)" d="M60 59.985C60.008 26.855 86.868 0 120 0v120c-33.132 0-59.992-26.855-60-59.985C59.992 93.145 33.132 120 0 120V0c33.132 0 59.992 26.855 60 59.985z" fill="#17c3b2"/></svg><svg><path transform="translate(360, 540) scale(0.5)" d="M60 59.985C60.008 26.855 86.868 0 120 0v120c-33.132 0-59.992-26.855-60-59.985C59.992 93.145 33.132 120 0 120V0c33.132 0 59.992 26.855 60 59.985z" fill="#ffcb77"/></svg><svg><path transform="translate(360, 600) scale(0.5)" d="M60 59.985C60.008 26.855 86.868 0 120 0v120c-33.132 0-59.992-26.855-60-59.985C59.992 93.145 33.132 120 0 120V0c33.132 0 59.992 26.855 60 59.985z" fill="#fef9ef"/></svg><svg><path transform="translate(360, 720) scale(0.5)" d="M60 59.985C60.008 26.855 86.868 0 120 0v120c-33.132 0-59.992-26.855-60-59.985C59.992 93.145 33.132 120 0 120V0c33.132 0 59.992 26.855 60 59.985z" fill="#fef9ef"/></svg><svg><path transform="translate(360, 780) scale(0.5)" d="M59.985 60C26.855 59.992 0 33.132 0 0h120c0 33.132-26.855 59.992-59.985 60C93.145 60.008 120 86.868 120 120H0c0-33.132 26.855-59.992 59.985-60z" fill="#fe6d73"/></svg><svg><path transform="translate(360, 840) scale(0.5)" d="M60 59.985C60.008 26.855 86.868 0 120 0v120c-33.132 0-59.992-26.855-60-59.985C59.992 93.145 33.132 120 0 120V0c33.132 0 59.992 26.855 60 59.985z" fill="#17c3b2"/></svg><svg><path transform="translate(360, 960) scale(0.5)" d="M59.985 60C26.855 59.992 0 33.132 0 0h120c0 33.132-26.855 59.992-59.985 60C93.145 60.008 120 86.868 120 120H0c0-33.132 26.855-59.992 59.985-60z" fill="#fef9ef"/></svg><svg><path transform="translate(360, 1020) scale(0.5)" d="M60 59.985C60.008 26.855 86.868 0 120 0v120c-33.132 0-59.992-26.855-60-59.985C59.992 93.145 33.132 120 0 120V0c33.132 0 59.992 26.855 60 59.985z" fill="#ffcb77"/></svg><svg><path transform="translate(360, 1140) scale(0.5)" d="M60 59.985C60.008 26.855 86.868 0 120 0v120c-33.132 0-59.992-26.855-60-59.985C59.992 93.145 33.132 120 0 120V0c33.132 0 59.992 26.855 60 59.985z" fill="#227c9d"/></svg><svg><path transform="translate(420, 60) scale(0.5)" d="M60 59.985C60.008 26.855 86.868 0 120 0v120c-33.132 0-59.992-26.855-60-59.985C59.992 93.145 33.132 120 0 120V0c33.132 0 59.992 26.855 60 59.985z" fill="#fe6d73"/></svg><svg><path transform="translate(420, 180) scale(0.5)" d="M60 59.985C60.008 26.855 86.868 0 120 0v120c-33.132 0-59.992-26.855-60-59.985C59.992 93.145 33.132 120 0 120V0c33.132 0 59.992 26.855 60 59.985z" fill="#ffcb77"/></svg><svg><path transform="translate(420, 240) scale(0.5)" d="M60 59.985C60.008 26.855 86.868 0 120 0v120c-33.132 0-59.992-26.855-60-59.985C59.992 93.145 33.132 120 0 120V0c33.132 0 59.992 26.855 60 59.985z" fill="#fe6d73"/></svg><svg><path transform="translate(420, 300) scale(0.5)" d="M60 59.985C60.008 26.855 86.868 0 120 0v120c-33.132 0-59.992-26.855-60-59.985C59.992 93.145 33.132 120 0 120V0c33.132 0 59.992 26.855 60 59.985z" fill="#227c9d"/></svg><svg><path transform="translate(420, 360) scale(0.5)" d="M60 59.985C60.008 26.855 86.868 0 120 0v120c-33.132 0-59.992-26.855-60-59.985C59.992 93.145 33.132 120 0 120V0c33.132 0 59.992 26.855 60 59.985z" fill="#ffcb77"/></svg><svg><path transform="translate(420, 420) scale(0.5)" d="M60 59.985C60.008 26.855 86.868 0 120 0v120c-33.132 0-59.992-26.855-60-59.985C59.992 93.145 33.132 120 0 120V0c33.132 0 59.992 26.855 60 59.985z" fill="#17c3b2"/></svg><svg><path transform="translate(420, 480) scale(0.5)" d="M59.985 60C26.855 59.992 0 33.132 0 0h120c0 33.132-26.855 59.992-59.985 60C93.145 60.008 120 86.868 120 120H0c0-33.132 26.855-59.992 59.985-60z" fill="#17c3b2"/></svg><svg><path transform="translate(420, 660) scale(0.5)" d="M60 59.985C60.008 26.855 86.868 0 120 0v120c-33.132 0-59.992-26.855-60-59.985C59.992 93.145 33.132 120 0 120V0c33.132 0 59.992 26.855 60 59.985z" fill="#fe6d73"/></svg><svg><path transform="translate(420, 720) scale(0.5)" d="M59.985 60C26.855 59.992 0 33.132 0 0h120c0 33.132-26.855 59.992-59.985 60C93.145 60.008 120 86.868 120 120H0c0-33.132 26.855-59.992 59.985-60z" fill="#fef9ef"/></svg><svg><path transform="translate(420, 840) scale(0.5)" d="M59.985 60C26.855 59.992 0 33.132 0 0h120c0 33.132-26.855 59.992-59.985 60C93.145 60.008 120 86.868 120 120H0c0-33.132 26.855-59.992 59.985-60z" fill="#17c3b2"/></svg><svg><path transform="translate(420, 900) scale(0.5)" d="M60 59.985C60.008 26.855 86.868 0 120 0v120c-33.132 0-59.992-26.855-60-59.985C59.992 93.145 33.132 120 0 120V0c33.132 0 59.992 26.855 60 59.985z" fill="#17c3b2"/></svg><svg><path transform="translate(420, 960) scale(0.5)" d="M59.985 60C26.855 59.992 0 33.132 0 0h120c0 33.132-26.855 59.992-59.985 60C93.145 60.008 120 86.868 120 120H0c0-33.132 26.855-59.992 59.985-60z" fill="#227c9d"/></svg><svg><path transform="translate(420, 1020) scale(0.5)" d="M60 59.985C60.008 26.855 86.868 0 120 0v120c-33.132 0-59.992-26.855-60-59.985C59.992 93.145 33.132 120 0 120V0c33.132 0 59.992 26.855 60 59.985z" fill="#17c3b2"/></svg><svg><path transform="translate(420, 1080) scale(0.5)" d="M60 59.985C60.008 26.855 86.868 0 120 0v120c-33.132 0-59.992-26.855-60-59.985C59.992 93.145 33.132 120 0 120V0c33.132 0 59.992 26.855 60 59.985z" fill="#17c3b2"/></svg><svg><path transform="translate(420, 1140) scale(0.5)" d="M59.985 60C26.855 59.992 0 33.132 0 0h120c0 33.132-26.855 59.992-59.985 60C93.145 60.008 120 86.868 120 120H0c0-33.132 26.855-59.992 59.985-60z" fill="#fef9ef"/></svg><svg><path transform="translate(480, 0) scale(0.5)" d="M59.985 60C26.855 59.992 0 33.132 0 0h120c0 33.132-26.855 59.992-59.985 60C93.145 60.008 120 86.868 120 120H0c0-33.132 26.855-59.992 59.985-60z" fill="#17c3b2"/></svg><svg><path transform="translate(480, 60) scale(0.5)" d="M60 59.985C60.008 26.855 86.868 0 120 0v120c-33.132 0-59.992-26.855-60-59.985C59.992 93.145 33.132 120 0 120V0c33.132 0 59.992 26.855 60 59.985z" fill="#ffcb77"/></svg><svg><path transform="translate(480, 120) scale(0.5)" d="M60 59.985C60.008 26.855 86.868 0 120 0v120c-33.132 0-59.992-26.855-60-59.985C59.992 93.145 33.132 120 0 120V0c33.132 0 59.992 26.855 60 59.985z" fill="#fe6d73"/></svg><svg><path transform="translate(480, 180) scale(0.5)" d="M59.985 60C26.855 59.992 0 33.132 0 0h120c0 33.132-26.855 59.992-59.985 60C93.145 60.008 120 86.868 120 120H0c0-33.132 26.855-59.992 59.985-60z" fill="#ffcb77"/></svg><svg><path transform="translate(480, 420) scale(0.5)" d="M60 59.985C60.008 26.855 86.868 0 120 0v120c-33.132 0-59.992-26.855-60-59.985C59.992 93.145 33.132 120 0 120V0c33.132 0 59.992 26.855 60 59.985z" fill="#ffcb77"/></svg><svg><path transform="translate(480, 720) scale(0.5)" d="M59.985 60C26.855 59.992 0 33.132 0 0h120c0 33.132-26.855 59.992-59.985 60C93.145 60.008 120 86.868 120 120H0c0-33.132 26.855-59.992 59.985-60z" fill="#17c3b2"/></svg><svg><path transform="translate(480, 780) scale(0.5)" d="M60 59.985C60.008 26.855 86.868 0 120 0v120c-33.132 0-59.992-26.855-60-59.985C59.992 93.145 33.132 120 0 120V0c33.132 0 59.992 26.855 60 59.985z" fill="#227c9d"/></svg><svg><path transform="translate(480, 840) scale(0.5)" d="M59.985 60C26.855 59.992 0 33.132 0 0h120c0 33.132-26.855 59.992-59.985 60C93.145 60.008 120 86.868 120 120H0c0-33.132 26.855-59.992 59.985-60z" fill="#fe6d73"/></svg><svg><path transform="translate(480, 900) scale(0.5)" d="M60 59.985C60.008 26.855 86.868 0 120 0v120c-33.132 0-59.992-26.855-60-59.985C59.992 93.145 33.132 120 0 120V0c33.132 0 59.992 26.855 60 59.985z" fill="#227c9d"/></svg><svg><path transform="translate(480, 1080) scale(0.5)" d="M59.985 60C26.855 59.992 0 33.132 0 0h120c0 33.132-26.855 59.992-59.985 60C93.145 60.008 120 86.868 120 120H0c0-33.132 26.855-59.992 59.985-60z" fill="#fe6d73"/></svg><svg><path transform="translate(480, 1140) scale(0.5)" d="M59.985 60C26.855 59.992 0 33.132 0 0h120c0 33.132-26.855 59.992-59.985 60C93.145 60.008 120 86.868 120 120H0c0-33.132 26.855-59.992 59.985-60z" fill="#ffcb77"/></svg><svg><path transform="translate(540, 120) scale(0.5)" d="M60 59.985C60.008 26.855 86.868 0 120 0v120c-33.132 0-59.992-26.855-60-59.985C59.992 93.145 33.132 120 0 120V0c33.132 0 59.992 26.855 60 59.985z" fill="#ffcb77"/></svg><svg><path transform="translate(540, 180) scale(0.5)" d="M60 59.985C60.008 26.855 86.868 0 120 0v120c-33.132 0-59.992-26.855-60-59.985C59.992 93.145 33.132 120 0 120V0c33.132 0 59.992 26.855 60 59.985z" fill="#ffcb77"/></svg><svg><path transform="translate(540, 240) scale(0.5)" d="M60 59.985C60.008 26.855 86.868 0 120 0v120c-33.132 0-59.992-26.855-60-59.985C59.992 93.145 33.132 120 0 120V0c33.132 0 59.992 26.855 60 59.985z" fill="#fef9ef"/></svg><svg><path transform="translate(540, 300) scale(0.5)" d="M59.985 60C26.855 59.992 0 33.132 0 0h120c0 33.132-26.855 59.992-59.985 60C93.145 60.008 120 86.868 120 120H0c0-33.132 26.855-59.992 59.985-60z" fill="#fef9ef"/></svg><svg><path transform="translate(540, 360) scale(0.5)" d="M59.985 60C26.855 59.992 0 33.132 0 0h120c0 33.132-26.855 59.992-59.985 60C93.145 60.008 120 86.868 120 120H0c0-33.132 26.855-59.992 59.985-60z" fill="#fef9ef"/></svg><svg><path transform="translate(540, 420) scale(0.5)" d="M59.985 60C26.855 59.992 0 33.132 0 0h120c0 33.132-26.855 59.992-59.985 60C93.145 60.008 120 86.868 120 120H0c0-33.132 26.855-59.992 59.985-60z" fill="#17c3b2"/></svg><svg><path transform="translate(540, 480) scale(0.5)" d="M59.985 60C26.855 59.992 0 33.132 0 0h120c0 33.132-26.855 59.992-59.985 60C93.145 60.008 120 86.868 120 120H0c0-33.132 26.855-59.992 59.985-60z" fill="#ffcb77"/></svg><svg><path transform="translate(540, 540) scale(0.5)" d="M60 59.985C60.008 26.855 86.868 0 120 0v120c-33.132 0-59.992-26.855-60-59.985C59.992 93.145 33.132 120 0 120V0c33.132 0 59.992 26.855 60 59.985z" fill="#227c9d"/></svg><svg><path transform="translate(540, 600) scale(0.5)" d="M59.985 60C26.855 59.992 0 33.132 0 0h120c0 33.132-26.855 59.992-59.985 60C93.145 60.008 120 86.868 120 120H0c0-33.132 26.855-59.992 59.985-60z" fill="#17c3b2"/></svg><svg><path transform="translate(540, 720) scale(0.5)" d="M59.985 60C26.855 59.992 0 33.132 0 0h120c0 33.132-26.855 59.992-59.985 60C93.145 60.008 120 86.868 120 120H0c0-33.132 26.855-59.992 59.985-60z" fill="#17c3b2"/></svg><svg><path transform="translate(540, 780) scale(0.5)" d="M59.985 60C26.855 59.992 0 33.132 0 0h120c0 33.132-26.855 59.992-59.985 60C93.145 60.008 120 86.868 120 120H0c0-33.132 26.855-59.992 59.985-60z" fill="#fef9ef"/></svg><svg><path transform="translate(540, 900) scale(0.5)" d="M59.985 60C26.855 59.992 0 33.132 0 0h120c0 33.132-26.855 59.992-59.985 60C93.145 60.008 120 86.868 120 120H0c0-33.132 26.855-59.992 59.985-60z" fill="#17c3b2"/></svg><svg><path transform="translate(540, 960) scale(0.5)" d="M59.985 60C26.855 59.992 0 33.132 0 0h120c0 33.132-26.855 59.992-59.985 60C93.145 60.008 120 86.868 120 120H0c0-33.132 26.855-59.992 59.985-60z" fill="#ffcb77"/></svg><svg><path transform="translate(540, 1080) scale(0.5)" d="M60 59.985C60.008 26.855 86.868 0 120 0v120c-33.132 0-59.992-26.855-60-59.985C59.992 93.145 33.132 120 0 120V0c33.132 0 59.992 26.855 60 59.985z" fill="#fef9ef"/></svg><svg><path transform="translate(600, 60) scale(0.5)" d="M60 59.985C60.008 26.855 86.868 0 120 0v120c-33.132 0-59.992-26.855-60-59.985C59.992 93.145 33.132 120 0 120V0c33.132 0 59.992 26.855 60 59.985z" fill="#fef9ef"/></svg><svg><path transform="translate(600, 120) scale(0.5)" d="M60 59.985C60.008 26.855 86.868 0 120 0v120c-33.132 0-59.992-26.855-60-59.985C59.992 93.145 33.132 120 0 120V0c33.132 0 59.992 26.855 60 59.985z" fill="#fef9ef"/></svg><svg><path transform="translate(600, 180) scale(0.5)" d="M60 59.985C60.008 26.855 86.868 0 120 0v120c-33.132 0-59.992-26.855-60-59.985C59.992 93.145 33.132 120 0 120V0c33.132 0 59.992 26.855 60 59.985z" fill="#fef9ef"/></svg><svg><path transform="translate(600, 300) scale(0.5)" d="M60 59.985C60.008 26.855 86.868 0 120 0v120c-33.132 0-59.992-26.855-60-59.985C59.992 93.145 33.132 120 0 120V0c33.132 0 59.992 26.855 60 59.985z" fill="#227c9d"/></svg><svg><path transform="translate(600, 360) scale(0.5)" d="M59.985 60C26.855 59.992 0 33.132 0 0h120c0 33.132-26.855 59.992-59.985 60C93.145 60.008 120 86.868 120 120H0c0-33.132 26.855-59.992 59.985-60z" fill="#17c3b2"/></svg><svg><path transform="translate(600, 420) scale(0.5)" d="M59.985 60C26.855 59.992 0 33.132 0 0h120c0 33.132-26.855 59.992-59.985 60C93.145 60.008 120 86.868 120 120H0c0-33.132 26.855-59.992 59.985-60z" fill="#fef9ef"/></svg><svg><path transform="translate(600, 540) scale(0.5)" d="M59.985 60C26.855 59.992 0 33.132 0 0h120c0 33.132-26.855 59.992-59.985 60C93.145 60.008 120 86.868 120 120H0c0-33.132 26.855-59.992 59.985-60z" fill="#fef9ef"/></svg><svg><path transform="translate(600, 660) scale(0.5)" d="M59.985 60C26.855 59.992 0 33.132 0 0h120c0 33.132-26.855 59.992-59.985 60C93.145 60.008 120 86.868 120 120H0c0-33.132 26.855-59.992 59.985-60z" fill="#17c3b2"/></svg><svg><path transform="translate(600, 720) scale(0.5)" d="M59.985 60C26.855 59.992 0 33.132 0 0h120c0 33.132-26.855 59.992-59.985 60C93.145 60.008 120 86.868 120 120H0c0-33.132 26.855-59.992 59.985-60z" fill="#17c3b2"/></svg><svg><path transform="translate(600, 780) scale(0.5)" d="M60 59.985C60.008 26.855 86.868 0 120 0v120c-33.132 0-59.992-26.855-60-59.985C59.992 93.145 33.132 120 0 120V0c33.132 0 59.992 26.855 60 59.985z" fill="#fe6d73"/></svg><svg><path transform="translate(600, 840) scale(0.5)" d="M59.985 60C26.855 59.992 0 33.132 0 0h120c0 33.132-26.855 59.992-59.985 60C93.145 60.008 120 86.868 120 120H0c0-33.132 26.855-59.992 59.985-60z" fill="#227c9d"/></svg><svg><path transform="translate(600, 960) scale(0.5)" d="M59.985 60C26.855 59.992 0 33.132 0 0h120c0 33.132-26.855 59.992-59.985 60C93.145 60.008 120 86.868 120 120H0c0-33.132 26.855-59.992 59.985-60z" fill="#fef9ef"/></svg><svg><path transform="translate(600, 1020) scale(0.5)" d="M60 59.985C60.008 26.855 86.868 0 120 0v120c-33.132 0-59.992-26.855-60-59.985C59.992 93.145 33.132 120 0 120V0c33.132 0 59.992 26.855 60 59.985z" fill="#ffcb77"/></svg><svg><path transform="translate(660, 0) scale(0.5)" d="M59.985 60C26.855 59.992 0 33.132 0 0h120c0 33.132-26.855 59.992-59.985 60C93.145 60.008 120 86.868 120 120H0c0-33.132 26.855-59.992 59.985-60z" fill="#fef9ef"/></svg><svg><path transform="translate(660, 60) scale(0.5)" d="M59.985 60C26.855 59.992 0 33.132 0 0h120c0 33.132-26.855 59.992-59.985 60C93.145 60.008 120 86.868 120 120H0c0-33.132 26.855-59.992 59.985-60z" fill="#fef9ef"/></svg><svg><path transform="translate(660, 120) scale(0.5)" d="M59.985 60C26.855 59.992 0 33.132 0 0h120c0 33.132-26.855 59.992-59.985 60C93.145 60.008 120 86.868 120 120H0c0-33.132 26.855-59.992 59.985-60z" fill="#17c3b2"/></svg><svg><path transform="translate(660, 180) scale(0.5)" d="M59.985 60C26.855 59.992 0 33.132 0 0h120c0 33.132-26.855 59.992-59.985 60C93.145 60.008 120 86.868 120 120H0c0-33.132 26.855-59.992 59.985-60z" fill="#17c3b2"/></svg><svg><path transform="translate(660, 240) scale(0.5)" d="M60 59.985C60.008 26.855 86.868 0 120 0v120c-33.132 0-59.992-26.855-60-59.985C59.992 93.145 33.132 120 0 120V0c33.132 0 59.992 26.855 60 59.985z" fill="#17c3b2"/></svg><svg><path transform="translate(660, 300) scale(0.5)" d="M60 59.985C60.008 26.855 86.868 0 120 0v120c-33.132 0-59.992-26.855-60-59.985C59.992 93.145 33.132 120 0 120V0c33.132 0 59.992 26.855 60 59.985z" fill="#fe6d73"/></svg><svg><path transform="translate(660, 360) scale(0.5)" d="M60 59.985C60.008 26.855 86.868 0 120 0v120c-33.132 0-59.992-26.855-60-59.985C59.992 93.145 33.132 120 0 120V0c33.132 0 59.992 26.855 60 59.985z" fill="#17c3b2"/></svg><svg><path transform="translate(660, 480) scale(0.5)" d="M60 59.985C60.008 26.855 86.868 0 120 0v120c-33.132 0-59.992-26.855-60-59.985C59.992 93.145 33.132 120 0 120V0c33.132 0 59.992 26.855 60 59.985z" fill="#17c3b2"/></svg><svg><path transform="translate(660, 540) scale(0.5)" d="M59.985 60C26.855 59.992 0 33.132 0 0h120c0 33.132-26.855 59.992-59.985 60C93.145 60.008 120 86.868 120 120H0c0-33.132 26.855-59.992 59.985-60z" fill="#fef9ef"/></svg><svg><path transform="translate(660, 600) scale(0.5)" d="M59.985 60C26.855 59.992 0 33.132 0 0h120c0 33.132-26.855 59.992-59.985 60C93.145 60.008 120 86.868 120 120H0c0-33.132 26.855-59.992 59.985-60z" fill="#227c9d"/></svg><svg><path transform="translate(660, 660) scale(0.5)" d="M60 59.985C60.008 26.855 86.868 0 120 0v120c-33.132 0-59.992-26.855-60-59.985C59.992 93.145 33.132 120 0 120V0c33.132 0 59.992 26.855 60 59.985z" fill="#fef9ef"/></svg><svg><path transform="translate(660, 720) scale(0.5)" d="M59.985 60C26.855 59.992 0 33.132 0 0h120c0 33.132-26.855 59.992-59.985 60C93.145 60.008 120 86.868 120 120H0c0-33.132 26.855-59.992 59.985-60z" fill="#fef9ef"/></svg><svg><path transform="translate(660, 780) scale(0.5)" d="M60 59.985C60.008 26.855 86.868 0 120 0v120c-33.132 0-59.992-26.855-60-59.985C59.992 93.145 33.132 120 0 120V0c33.132 0 59.992 26.855 60 59.985z" fill="#ffcb77"/></svg><svg><path transform="translate(660, 960) scale(0.5)" d="M60 59.985C60.008 26.855 86.868 0 120 0v120c-33.132 0-59.992-26.855-60-59.985C59.992 93.145 33.132 120 0 120V0c33.132 0 59.992 26.855 60 59.985z" fill="#17c3b2"/></svg><svg><path transform="translate(660, 1020) scale(0.5)" d="M60 59.985C60.008 26.855 86.868 0 120 0v120c-33.132 0-59.992-26.855-60-59.985C59.992 93.145 33.132 120 0 120V0c33.132 0 59.992 26.855 60 59.985z" fill="#17c3b2"/></svg><svg><path transform="translate(660, 1080) scale(0.5)" d="M59.985 60C26.855 59.992 0 33.132 0 0h120c0 33.132-26.855 59.992-59.985 60C93.145 60.008 120 86.868 120 120H0c0-33.132 26.855-59.992 59.985-60z" fill="#fef9ef"/></svg><svg><path transform="translate(660, 1140) scale(0.5)" d="M60 59.985C60.008 26.855 86.868 0 120 0v120c-33.132 0-59.992-26.855-60-59.985C59.992 93.145 33.132 120 0 120V0c33.132 0 59.992 26.855 60 59.985z" fill="#ffcb77"/></svg><svg><path transform="translate(720, 0) scale(0.5)" d="M60 59.985C60.008 26.855 86.868 0 120 0v120c-33.132 0-59.992-26.855-60-59.985C59.992 93.145 33.132 120 0 120V0c33.132 0 59.992 26.855 60 59.985z" fill="#227c9d"/></svg><svg><path transform="translate(720, 60) scale(0.5)" d="M59.985 60C26.855 59.992 0 33.132 0 0h120c0 33.132-26.855 59.992-59.985 60C93.145 60.008 120 86.868 120 120H0c0-33.132 26.855-59.992 59.985-60z" fill="#fe6d73"/></svg><svg><path transform="translate(720, 120) scale(0.5)" d="M60 59.985C60.008 26.855 86.868 0 120 0v120c-33.132 0-59.992-26.855-60-59.985C59.992 93.145 33.132 120 0 120V0c33.132 0 59.992 26.855 60 59.985z" fill="#fe6d73"/></svg><svg><path transform="translate(720, 180) scale(0.5)" d="M59.985 60C26.855 59.992 0 33.132 0 0h120c0 33.132-26.855 59.992-59.985 60C93.145 60.008 120 86.868 120 120H0c0-33.132 26.855-59.992 59.985-60z" fill="#17c3b2"/></svg><svg><path transform="translate(720, 240) scale(0.5)" d="M60 59.985C60.008 26.855 86.868 0 120 0v120c-33.132 0-59.992-26.855-60-59.985C59.992 93.145 33.132 120 0 120V0c33.132 0 59.992 26.855 60 59.985z" fill="#17c3b2"/></svg><svg><path transform="translate(720, 300) scale(0.5)" d="M59.985 60C26.855 59.992 0 33.132 0 0h120c0 33.132-26.855 59.992-59.985 60C93.145 60.008 120 86.868 120 120H0c0-33.132 26.855-59.992 59.985-60z" fill="#fef9ef"/></svg><svg><path transform="translate(720, 360) scale(0.5)" d="M59.985 60C26.855 59.992 0 33.132 0 0h120c0 33.132-26.855 59.992-59.985 60C93.145 60.008 120 86.868 120 120H0c0-33.132 26.855-59.992 59.985-60z" fill="#ffcb77"/></svg><svg><path transform="translate(720, 540) scale(0.5)" d="M60 59.985C60.008 26.855 86.868 0 120 0v120c-33.132 0-59.992-26.855-60-59.985C59.992 93.145 33.132 120 0 120V0c33.132 0 59.992 26.855 60 59.985z" fill="#ffcb77"/></svg><svg><path transform="translate(720, 600) scale(0.5)" d="M60 59.985C60.008 26.855 86.868 0 120 0v120c-33.132 0-59.992-26.855-60-59.985C59.992 93.145 33.132 120 0 120V0c33.132 0 59.992 26.855 60 59.985z" fill="#ffcb77"/></svg><svg><path transform="translate(720, 660) scale(0.5)" d="M60 59.985C60.008 26.855 86.868 0 120 0v120c-33.132 0-59.992-26.855-60-59.985C59.992 93.145 33.132 120 0 120V0c33.132 0 59.992 26.855 60 59.985z" fill="#fef9ef"/></svg><svg><path transform="translate(720, 720) scale(0.5)" d="M59.985 60C26.855 59.992 0 33.132 0 0h120c0 33.132-26.855 59.992-59.985 60C93.145 60.008 120 86.868 120 120H0c0-33.132 26.855-59.992 59.985-60z" fill="#fef9ef"/></svg><svg><path transform="translate(720, 780) scale(0.5)" d="M60 59.985C60.008 26.855 86.868 0 120 0v120c-33.132 0-59.992-26.855-60-59.985C59.992 93.145 33.132 120 0 120V0c33.132 0 59.992 26.855 60 59.985z" fill="#17c3b2"/></svg><svg><path transform="translate(720, 900) scale(0.5)" d="M60 59.985C60.008 26.855 86.868 0 120 0v120c-33.132 0-59.992-26.855-60-59.985C59.992 93.145 33.132 120 0 120V0c33.132 0 59.992 26.855 60 59.985z" fill="#227c9d"/></svg><svg><path transform="translate(720, 1020) scale(0.5)" d="M59.985 60C26.855 59.992 0 33.132 0 0h120c0 33.132-26.855 59.992-59.985 60C93.145 60.008 120 86.868 120 120H0c0-33.132 26.855-59.992 59.985-60z" fill="#227c9d"/></svg><svg><path transform="translate(720, 1140) scale(0.5)" d="M60 59.985C60.008 26.855 86.868 0 120 0v120c-33.132 0-59.992-26.855-60-59.985C59.992 93.145 33.132 120 0 120V0c33.132 0 59.992 26.855 60 59.985z" fill="#fef9ef"/></svg><svg><path transform="translate(780, 0) scale(0.5)" d="M60 59.985C60.008 26.855 86.868 0 120 0v120c-33.132 0-59.992-26.855-60-59.985C59.992 93.145 33.132 120 0 120V0c33.132 0 59.992 26.855 60 59.985z" fill="#ffcb77"/></svg><svg><path transform="translate(780, 60) scale(0.5)" d="M60 59.985C60.008 26.855 86.868 0 120 0v120c-33.132 0-59.992-26.855-60-59.985C59.992 93.145 33.132 120 0 120V0c33.132 0 59.992 26.855 60 59.985z" fill="#17c3b2"/></svg><svg><path transform="translate(780, 120) scale(0.5)" d="M59.985 60C26.855 59.992 0 33.132 0 0h120c0 33.132-26.855 59.992-59.985 60C93.145 60.008 120 86.868 120 120H0c0-33.132 26.855-59.992 59.985-60z" fill="#17c3b2"/></svg><svg><path transform="translate(780, 180) scale(0.5)" d="M60 59.985C60.008 26.855 86.868 0 120 0v120c-33.132 0-59.992-26.855-60-59.985C59.992 93.145 33.132 120 0 120V0c33.132 0 59.992 26.855 60 59.985z" fill="#ffcb77"/></svg><svg><path transform="translate(780, 240) scale(0.5)" d="M60 59.985C60.008 26.855 86.868 0 120 0v120c-33.132 0-59.992-26.855-60-59.985C59.992 93.145 33.132 120 0 120V0c33.132 0 59.992 26.855 60 59.985z" fill="#fef9ef"/></svg><svg><path transform="translate(780, 300) scale(0.5)" d="M60 59.985C60.008 26.855 86.868 0 120 0v120c-33.132 0-59.992-26.855-60-59.985C59.992 93.145 33.132 120 0 120V0c33.132 0 59.992 26.855 60 59.985z" fill="#227c9d"/></svg><svg><path transform="translate(780, 360) scale(0.5)" d="M60 59.985C60.008 26.855 86.868 0 120 0v120c-33.132 0-59.992-26.855-60-59.985C59.992 93.145 33.132 120 0 120V0c33.132 0 59.992 26.855 60 59.985z" fill="#227c9d"/></svg><svg><path transform="translate(780, 480) scale(0.5)" d="M59.985 60C26.855 59.992 0 33.132 0 0h120c0 33.132-26.855 59.992-59.985 60C93.145 60.008 120 86.868 120 120H0c0-33.132 26.855-59.992 59.985-60z" fill="#227c9d"/></svg><svg><path transform="translate(780, 540) scale(0.5)" d="M59.985 60C26.855 59.992 0 33.132 0 0h120c0 33.132-26.855 59.992-59.985 60C93.145 60.008 120 86.868 120 120H0c0-33.132 26.855-59.992 59.985-60z" fill="#fef9ef"/></svg><svg><path transform="translate(780, 600) scale(0.5)" d="M60 59.985C60.008 26.855 86.868 0 120 0v120c-33.132 0-59.992-26.855-60-59.985C59.992 93.145 33.132 120 0 120V0c33.132 0 59.992 26.855 60 59.985z" fill="#17c3b2"/></svg><svg><path transform="translate(780, 660) scale(0.5)" d="M60 59.985C60.008 26.855 86.868 0 120 0v120c-33.132 0-59.992-26.855-60-59.985C59.992 93.145 33.132 120 0 120V0c33.132 0 59.992 26.855 60 59.985z" fill="#fe6d73"/></svg><svg><path transform="translate(780, 780) scale(0.5)" d="M59.985 60C26.855 59.992 0 33.132 0 0h120c0 33.132-26.855 59.992-59.985 60C93.145 60.008 120 86.868 120 120H0c0-33.132 26.855-59.992 59.985-60z" fill="#fef9ef"/></svg><svg><path transform="translate(780, 840) scale(0.5)" d="M59.985 60C26.855 59.992 0 33.132 0 0h120c0 33.132-26.855 59.992-59.985 60C93.145 60.008 120 86.868 120 120H0c0-33.132 26.855-59.992 59.985-60z" fill="#227c9d"/></svg><svg><path transform="translate(780, 900) scale(0.5)" d="M59.985 60C26.855 59.992 0 33.132 0 0h120c0 33.132-26.855 59.992-59.985 60C93.145 60.008 120 86.868 120 120H0c0-33.132 26.855-59.992 59.985-60z" fill="#17c3b2"/></svg><svg><path transform="translate(780, 960) scale(0.5)" d="M59.985 60C26.855 59.992 0 33.132 0 0h120c0 33.132-26.855 59.992-59.985 60C93.145 60.008 120 86.868 120 120H0c0-33.132 26.855-59.992 59.985-60z" fill="#227c9d"/></svg><svg><path transform="translate(780, 1020) scale(0.5)" d="M59.985 60C26.855 59.992 0 33.132 0 0h120c0 33.132-26.855 59.992-59.985 60C93.145 60.008 120 86.868 120 120H0c0-33.132 26.855-59.992 59.985-60z" fill="#fef9ef"/></svg><svg><path transform="translate(780, 1140) scale(0.5)" d="M60 59.985C60.008 26.855 86.868 0 120 0v120c-33.132 0-59.992-26.855-60-59.985C59.992 93.145 33.132 120 0 120V0c33.132 0 59.992 26.855 60 59.985z" fill="#fe6d73"/></svg><svg><path transform="translate(840, 0) scale(0.5)" d="M60 59.985C60.008 26.855 86.868 0 120 0v120c-33.132 0-59.992-26.855-60-59.985C59.992 93.145 33.132 120 0 120V0c33.132 0 59.992 26.855 60 59.985z" fill="#fef9ef"/></svg><svg><path transform="translate(840, 120) scale(0.5)" d="M60 59.985C60.008 26.855 86.868 0 120 0v120c-33.132 0-59.992-26.855-60-59.985C59.992 93.145 33.132 120 0 120V0c33.132 0 59.992 26.855 60 59.985z" fill="#fef9ef"/></svg><svg><path transform="translate(840, 300) scale(0.5)" d="M60 59.985C60.008 26.855 86.868 0 120 0v120c-33.132 0-59.992-26.855-60-59.985C59.992 93.145 33.132 120 0 120V0c33.132 0 59.992 26.855 60 59.985z" fill="#227c9d"/></svg><svg><path transform="translate(840, 360) scale(0.5)" d="M59.985 60C26.855 59.992 0 33.132 0 0h120c0 33.132-26.855 59.992-59.985 60C93.145 60.008 120 86.868 120 120H0c0-33.132 26.855-59.992 59.985-60z" fill="#ffcb77"/></svg><svg><path transform="translate(840, 420) scale(0.5)" d="M60 59.985C60.008 26.855 86.868 0 120 0v120c-33.132 0-59.992-26.855-60-59.985C59.992 93.145 33.132 120 0 120V0c33.132 0 59.992 26.855 60 59.985z" fill="#ffcb77"/></svg><svg><path transform="translate(840, 480) scale(0.5)" d="M60 59.985C60.008 26.855 86.868 0 120 0v120c-33.132 0-59.992-26.855-60-59.985C59.992 93.145 33.132 120 0 120V0c33.132 0 59.992 26.855 60 59.985z" fill="#17c3b2"/></svg><svg><path transform="translate(840, 600) scale(0.5)" d="M60 59.985C60.008 26.855 86.868 0 120 0v120c-33.132 0-59.992-26.855-60-59.985C59.992 93.145 33.132 120 0 120V0c33.132 0 59.992 26.855 60 59.985z" fill="#ffcb77"/></svg><svg><path transform="translate(840, 660) scale(0.5)" d="M59.985 60C26.855 59.992 0 33.132 0 0h120c0 33.132-26.855 59.992-59.985 60C93.145 60.008 120 86.868 120 120H0c0-33.132 26.855-59.992 59.985-60z" fill="#fef9ef"/></svg><svg><path transform="translate(840, 720) scale(0.5)" d="M60 59.985C60.008 26.855 86.868 0 120 0v120c-33.132 0-59.992-26.855-60-59.985C59.992 93.145 33.132 120 0 120V0c33.132 0 59.992 26.855 60 59.985z" fill="#ffcb77"/></svg><svg><path transform="translate(840, 780) scale(0.5)" d="M59.985 60C26.855 59.992 0 33.132 0 0h120c0 33.132-26.855 59.992-59.985 60C93.145 60.008 120 86.868 120 120H0c0-33.132 26.855-59.992 59.985-60z" fill="#ffcb77"/></svg><svg><path transform="translate(840, 840) scale(0.5)" d="M59.985 60C26.855 59.992 0 33.132 0 0h120c0 33.132-26.855 59.992-59.985 60C93.145 60.008 120 86.868 120 120H0c0-33.132 26.855-59.992 59.985-60z" fill="#17c3b2"/></svg><svg><path transform="translate(840, 900) scale(0.5)" d="M59.985 60C26.855 59.992 0 33.132 0 0h120c0 33.132-26.855 59.992-59.985 60C93.145 60.008 120 86.868 120 120H0c0-33.132 26.855-59.992 59.985-60z" fill="#17c3b2"/></svg><svg><path transform="translate(840, 960) scale(0.5)" d="M60 59.985C60.008 26.855 86.868 0 120 0v120c-33.132 0-59.992-26.855-60-59.985C59.992 93.145 33.132 120 0 120V0c33.132 0 59.992 26.855 60 59.985z" fill="#fef9ef"/></svg><svg><path transform="translate(840, 1080) scale(0.5)" d="M60 59.985C60.008 26.855 86.868 0 120 0v120c-33.132 0-59.992-26.855-60-59.985C59.992 93.145 33.132 120 0 120V0c33.132 0 59.992 26.855 60 59.985z" fill="#17c3b2"/></svg><svg><path transform="translate(900, 0) scale(0.5)" d="M59.985 60C26.855 59.992 0 33.132 0 0h120c0 33.132-26.855 59.992-59.985 60C93.145 60.008 120 86.868 120 120H0c0-33.132 26.855-59.992 59.985-60z" fill="#fef9ef"/></svg><svg><path transform="translate(900, 60) scale(0.5)" d="M60 59.985C60.008 26.855 86.868 0 120 0v120c-33.132 0-59.992-26.855-60-59.985C59.992 93.145 33.132 120 0 120V0c33.132 0 59.992 26.855 60 59.985z" fill="#ffcb77"/></svg><svg><path transform="translate(900, 120) scale(0.5)" d="M59.985 60C26.855 59.992 0 33.132 0 0h120c0 33.132-26.855 59.992-59.985 60C93.145 60.008 120 86.868 120 120H0c0-33.132 26.855-59.992 59.985-60z" fill="#227c9d"/></svg><svg><path transform="translate(900, 180) scale(0.5)" d="M59.985 60C26.855 59.992 0 33.132 0 0h120c0 33.132-26.855 59.992-59.985 60C93.145 60.008 120 86.868 120 120H0c0-33.132 26.855-59.992 59.985-60z" fill="#ffcb77"/></svg><svg><path transform="translate(900, 240) scale(0.5)" d="M59.985 60C26.855 59.992 0 33.132 0 0h120c0 33.132-26.855 59.992-59.985 60C93.145 60.008 120 86.868 120 120H0c0-33.132 26.855-59.992 59.985-60z" fill="#17c3b2"/></svg><svg><path transform="translate(900, 300) scale(0.5)" d="M60 59.985C60.008 26.855 86.868 0 120 0v120c-33.132 0-59.992-26.855-60-59.985C59.992 93.145 33.132 120 0 120V0c33.132 0 59.992 26.855 60 59.985z" fill="#ffcb77"/></svg><svg><path transform="translate(900, 360) scale(0.5)" d="M60 59.985C60.008 26.855 86.868 0 120 0v120c-33.132 0-59.992-26.855-60-59.985C59.992 93.145 33.132 120 0 120V0c33.132 0 59.992 26.855 60 59.985z" fill="#17c3b2"/></svg><svg><path transform="translate(900, 480) scale(0.5)" d="M60 59.985C60.008 26.855 86.868 0 120 0v120c-33.132 0-59.992-26.855-60-59.985C59.992 93.145 33.132 120 0 120V0c33.132 0 59.992 26.855 60 59.985z" fill="#17c3b2"/></svg><svg><path transform="translate(900, 600) scale(0.5)" d="M59.985 60C26.855 59.992 0 33.132 0 0h120c0 33.132-26.855 59.992-59.985 60C93.145 60.008 120 86.868 120 120H0c0-33.132 26.855-59.992 59.985-60z" fill="#ffcb77"/></svg><svg><path transform="translate(900, 660) scale(0.5)" d="M59.985 60C26.855 59.992 0 33.132 0 0h120c0 33.132-26.855 59.992-59.985 60C93.145 60.008 120 86.868 120 120H0c0-33.132 26.855-59.992 59.985-60z" fill="#fe6d73"/></svg><svg><path transform="translate(900, 720) scale(0.5)" d="M59.985 60C26.855 59.992 0 33.132 0 0h120c0 33.132-26.855 59.992-59.985 60C93.145 60.008 120 86.868 120 120H0c0-33.132 26.855-59.992 59.985-60z" fill="#fef9ef"/></svg><svg><path transform="translate(900, 840) scale(0.5)" d="M59.985 60C26.855 59.992 0 33.132 0 0h120c0 33.132-26.855 59.992-59.985 60C93.145 60.008 120 86.868 120 120H0c0-33.132 26.855-59.992 59.985-60z" fill="#ffcb77"/></svg><svg><path transform="translate(900, 900) scale(0.5)" d="M60 59.985C60.008 26.855 86.868 0 120 0v120c-33.132 0-59.992-26.855-60-59.985C59.992 93.145 33.132 120 0 120V0c33.132 0 59.992 26.855 60 59.985z" fill="#17c3b2"/></svg><svg><path transform="translate(900, 960) scale(0.5)" d="M59.985 60C26.855 59.992 0 33.132 0 0h120c0 33.132-26.855 59.992-59.985 60C93.145 60.008 120 86.868 120 120H0c0-33.132 26.855-59.992 59.985-60z" fill="#fe6d73"/></svg><svg><path transform="translate(900, 1020) scale(0.5)" d="M60 59.985C60.008 26.855 86.868 0 120 0v120c-33.132 0-59.992-26.855-60-59.985C59.992 93.145 33.132 120 0 120V0c33.132 0 59.992 26.855 60 59.985z" fill="#fe6d73"/></svg><svg><path transform="translate(900, 1080) scale(0.5)" d="M59.985 60C26.855 59.992 0 33.132 0 0h120c0 33.132-26.855 59.992-59.985 60C93.145 60.008 120 86.868 120 120H0c0-33.132 26.855-59.992 59.985-60z" fill="#ffcb77"/></svg><svg><path transform="translate(960, 0) scale(0.5)" d="M59.985 60C26.855 59.992 0 33.132 0 0h120c0 33.132-26.855 59.992-59.985 60C93.145 60.008 120 86.868 120 120H0c0-33.132 26.855-59.992 59.985-60z" fill="#ffcb77"/></svg><svg><path transform="translate(960, 60) scale(0.5)" d="M59.985 60C26.855 59.992 0 33.132 0 0h120c0 33.132-26.855 59.992-59.985 60C93.145 60.008 120 86.868 120 120H0c0-33.132 26.855-59.992 59.985-60z" fill="#fef9ef"/></svg><svg><path transform="translate(960, 120) scale(0.5)" d="M59.985 60C26.855 59.992 0 33.132 0 0h120c0 33.132-26.855 59.992-59.985 60C93.145 60.008 120 86.868 120 120H0c0-33.132 26.855-59.992 59.985-60z" fill="#17c3b2"/></svg><svg><path transform="translate(960, 180) scale(0.5)" d="M59.985 60C26.855 59.992 0 33.132 0 0h120c0 33.132-26.855 59.992-59.985 60C93.145 60.008 120 86.868 120 120H0c0-33.132 26.855-59.992 59.985-60z" fill="#fe6d73"/></svg><svg><path transform="translate(960, 240) scale(0.5)" d="M60 59.985C60.008 26.855 86.868 0 120 0v120c-33.132 0-59.992-26.855-60-59.985C59.992 93.145 33.132 120 0 120V0c33.132 0 59.992 26.855 60 59.985z" fill="#17c3b2"/></svg><svg><path transform="translate(960, 300) scale(0.5)" d="M60 59.985C60.008 26.855 86.868 0 120 0v120c-33.132 0-59.992-26.855-60-59.985C59.992 93.145 33.132 120 0 120V0c33.132 0 59.992 26.855 60 59.985z" fill="#ffcb77"/></svg><svg><path transform="translate(960, 360) scale(0.5)" d="M60 59.985C60.008 26.855 86.868 0 120 0v120c-33.132 0-59.992-26.855-60-59.985C59.992 93.145 33.132 120 0 120V0c33.132 0 59.992 26.855 60 59.985z" fill="#fef9ef"/></svg><svg><path transform="translate(960, 420) scale(0.5)" d="M60 59.985C60.008 26.855 86.868 0 120 0v120c-33.132 0-59.992-26.855-60-59.985C59.992 93.145 33.132 120 0 120V0c33.132 0 59.992 26.855 60 59.985z" fill="#ffcb77"/></svg><svg><path transform="translate(960, 480) scale(0.5)" d="M59.985 60C26.855 59.992 0 33.132 0 0h120c0 33.132-26.855 59.992-59.985 60C93.145 60.008 120 86.868 120 120H0c0-33.132 26.855-59.992 59.985-60z" fill="#fef9ef"/></svg><svg><path transform="translate(960, 540) scale(0.5)" d="M60 59.985C60.008 26.855 86.868 0 120 0v120c-33.132 0-59.992-26.855-60-59.985C59.992 93.145 33.132 120 0 120V0c33.132 0 59.992 26.855 60 59.985z" fill="#17c3b2"/></svg><svg><path transform="translate(960, 600) scale(0.5)" d="M60 59.985C60.008 26.855 86.868 0 120 0v120c-33.132 0-59.992-26.855-60-59.985C59.992 93.145 33.132 120 0 120V0c33.132 0 59.992 26.855 60 59.985z" fill="#fe6d73"/></svg><svg><path transform="translate(960, 660) scale(0.5)" d="M59.985 60C26.855 59.992 0 33.132 0 0h120c0 33.132-26.855 59.992-59.985 60C93.145 60.008 120 86.868 120 120H0c0-33.132 26.855-59.992 59.985-60z" fill="#fe6d73"/></svg><svg><path transform="translate(960, 840) scale(0.5)" d="M59.985 60C26.855 59.992 0 33.132 0 0h120c0 33.132-26.855 59.992-59.985 60C93.145 60.008 120 86.868 120 120H0c0-33.132 26.855-59.992 59.985-60z" fill="#fef9ef"/></svg><svg><path transform="translate(960, 900) scale(0.5)" d="M59.985 60C26.855 59.992 0 33.132 0 0h120c0 33.132-26.855 59.992-59.985 60C93.145 60.008 120 86.868 120 120H0c0-33.132 26.855-59.992 59.985-60z" fill="#fe6d73"/></svg><svg><path transform="translate(960, 960) scale(0.5)" d="M60 59.985C60.008 26.855 86.868 0 120 0v120c-33.132 0-59.992-26.855-60-59.985C59.992 93.145 33.132 120 0 120V0c33.132 0 59.992 26.855 60 59.985z" fill="#227c9d"/></svg><svg><path transform="translate(960, 1020) scale(0.5)" d="M60 59.985C60.008 26.855 86.868 0 120 0v120c-33.132 0-59.992-26.855-60-59.985C59.992 93.145 33.132 120 0 120V0c33.132 0 59.992 26.855 60 59.985z" fill="#ffcb77"/></svg><svg><path transform="translate(960, 1080) scale(0.5)" d="M60 59.985C60.008 26.855 86.868 0 120 0v120c-33.132 0-59.992-26.855-60-59.985C59.992 93.145 33.132 120 0 120V0c33.132 0 59.992 26.855 60 59.985z" fill="#ffcb77"/></svg><svg><path transform="translate(1020, 0) scale(0.5)" d="M60 59.985C60.008 26.855 86.868 0 120 0v120c-33.132 0-59.992-26.855-60-59.985C59.992 93.145 33.132 120 0 120V0c33.132 0 59.992 26.855 60 59.985z" fill="#fef9ef"/></svg><svg><path transform="translate(1020, 120) scale(0.5)" d="M60 59.985C60.008 26.855 86.868 0 120 0v120c-33.132 0-59.992-26.855-60-59.985C59.992 93.145 33.132 120 0 120V0c33.132 0 59.992 26.855 60 59.985z" fill="#17c3b2"/></svg><svg><path transform="translate(1020, 180) scale(0.5)" d="M59.985 60C26.855 59.992 0 33.132 0 0h120c0 33.132-26.855 59.992-59.985 60C93.145 60.008 120 86.868 120 120H0c0-33.132 26.855-59.992 59.985-60z" fill="#fef9ef"/></svg><svg><path transform="translate(1020, 240) scale(0.5)" d="M59.985 60C26.855 59.992 0 33.132 0 0h120c0 33.132-26.855 59.992-59.985 60C93.145 60.008 120 86.868 120 120H0c0-33.132 26.855-59.992 59.985-60z" fill="#ffcb77"/></svg><svg><path transform="translate(1020, 300) scale(0.5)" d="M60 59.985C60.008 26.855 86.868 0 120 0v120c-33.132 0-59.992-26.855-60-59.985C59.992 93.145 33.132 120 0 120V0c33.132 0 59.992 26.855 60 59.985z" fill="#fef9ef"/></svg><svg><path transform="translate(1020, 360) scale(0.5)" d="M59.985 60C26.855 59.992 0 33.132 0 0h120c0 33.132-26.855 59.992-59.985 60C93.145 60.008 120 86.868 120 120H0c0-33.132 26.855-59.992 59.985-60z" fill="#17c3b2"/></svg><svg><path transform="translate(1020, 420) scale(0.5)" d="M59.985 60C26.855 59.992 0 33.132 0 0h120c0 33.132-26.855 59.992-59.985 60C93.145 60.008 120 86.868 120 120H0c0-33.132 26.855-59.992 59.985-60z" fill="#fe6d73"/></svg><svg><path transform="translate(1020, 480) scale(0.5)" d="M59.985 60C26.855 59.992 0 33.132 0 0h120c0 33.132-26.855 59.992-59.985 60C93.145 60.008 120 86.868 120 120H0c0-33.132 26.855-59.992 59.985-60z" fill="#ffcb77"/></svg><svg><path transform="translate(1020, 540) scale(0.5)" d="M60 59.985C60.008 26.855 86.868 0 120 0v120c-33.132 0-59.992-26.855-60-59.985C59.992 93.145 33.132 120 0 120V0c33.132 0 59.992 26.855 60 59.985z" fill="#ffcb77"/></svg><svg><path transform="translate(1020, 600) scale(0.5)" d="M59.985 60C26.855 59.992 0 33.132 0 0h120c0 33.132-26.855 59.992-59.985 60C93.145 60.008 120 86.868 120 120H0c0-33.132 26.855-59.992 59.985-60z" fill="#ffcb77"/></svg><svg><path transform="translate(1020, 660) scale(0.5)" d="M60 59.985C60.008 26.855 86.868 0 120 0v120c-33.132 0-59.992-26.855-60-59.985C59.992 93.145 33.132 120 0 120V0c33.132 0 59.992 26.855 60 59.985z" fill="#17c3b2"/></svg><svg><path transform="translate(1020, 720) scale(0.5)" d="M60 59.985C60.008 26.855 86.868 0 120 0v120c-33.132 0-59.992-26.855-60-59.985C59.992 93.145 33.132 120 0 120V0c33.132 0 59.992 26.855 60 59.985z" fill="#fef9ef"/></svg><svg><path transform="translate(1020, 780) scale(0.5)" d="M59.985 60C26.855 59.992 0 33.132 0 0h120c0 33.132-26.855 59.992-59.985 60C93.145 60.008 120 86.868 120 120H0c0-33.132 26.855-59.992 59.985-60z" fill="#fe6d73"/></svg><svg><path transform="translate(1020, 900) scale(0.5)" d="M59.985 60C26.855 59.992 0 33.132 0 0h120c0 33.132-26.855 59.992-59.985 60C93.145 60.008 120 86.868 120 120H0c0-33.132 26.855-59.992 59.985-60z" fill="#17c3b2"/></svg><svg><path transform="translate(1020, 960) scale(0.5)" d="M59.985 60C26.855 59.992 0 33.132 0 0h120c0 33.132-26.855 59.992-59.985 60C93.145 60.008 120 86.868 120 120H0c0-33.132 26.855-59.992 59.985-60z" fill="#fe6d73"/></svg><svg><path transform="translate(1020, 1020) scale(0.5)" d="M60 59.985C60.008 26.855 86.868 0 120 0v120c-33.132 0-59.992-26.855-60-59.985C59.992 93.145 33.132 120 0 120V0c33.132 0 59.992 26.855 60 59.985z" fill="#227c9d"/></svg><svg><path transform="translate(1020, 1080) scale(0.5)" d="M59.985 60C26.855 59.992 0 33.132 0 0h120c0 33.132-26.855 59.992-59.985 60C93.145 60.008 120 86.868 120 120H0c0-33.132 26.855-59.992 59.985-60z" fill="#17c3b2"/></svg><svg><path transform="translate(1020, 1140) scale(0.5)" d="M60 59.985C60.008 26.855 86.868 0 120 0v120c-33.132 0-59.992-26.855-60-59.985C59.992 93.145 33.132 120 0 120V0c33.132 0 59.992 26.855 60 59.985z" fill="#fef9ef"/></svg><svg><path transform="translate(1080, 60) scale(0.5)" d="M60 59.985C60.008 26.855 86.868 0 120 0v120c-33.132 0-59.992-26.855-60-59.985C59.992 93.145 33.132 120 0 120V0c33.132 0 59.992 26.855 60 59.985z" fill="#ffcb77"/></svg><svg><path transform="translate(1080, 120) scale(0.5)" d="M59.985 60C26.855 59.992 0 33.132 0 0h120c0 33.132-26.855 59.992-59.985 60C93.145 60.008 120 86.868 120 120H0c0-33.132 26.855-59.992 59.985-60z" fill="#fe6d73"/></svg><svg><path transform="translate(1080, 240) scale(0.5)" d="M60 59.985C60.008 26.855 86.868 0 120 0v120c-33.132 0-59.992-26.855-60-59.985C59.992 93.145 33.132 120 0 120V0c33.132 0 59.992 26.855 60 59.985z" fill="#fef9ef"/></svg><svg><path transform="translate(1080, 300) scale(0.5)" d="M59.985 60C26.855 59.992 0 33.132 0 0h120c0 33.132-26.855 59.992-59.985 60C93.145 60.008 120 86.868 120 120H0c0-33.132 26.855-59.992 59.985-60z" fill="#fe6d73"/></svg><svg><path transform="translate(1080, 360) scale(0.5)" d="M60 59.985C60.008 26.855 86.868 0 120 0v120c-33.132 0-59.992-26.855-60-59.985C59.992 93.145 33.132 120 0 120V0c33.132 0 59.992 26.855 60 59.985z" fill="#17c3b2"/></svg><svg><path transform="translate(1080, 420) scale(0.5)" d="M59.985 60C26.855 59.992 0 33.132 0 0h120c0 33.132-26.855 59.992-59.985 60C93.145 60.008 120 86.868 120 120H0c0-33.132 26.855-59.992 59.985-60z" fill="#fef9ef"/></svg><svg><path transform="translate(1080, 480) scale(0.5)" d="M59.985 60C26.855 59.992 0 33.132 0 0h120c0 33.132-26.855 59.992-59.985 60C93.145 60.008 120 86.868 120 120H0c0-33.132 26.855-59.992 59.985-60z" fill="#fef9ef"/></svg><svg><path transform="translate(1080, 540) scale(0.5)" d="M59.985 60C26.855 59.992 0 33.132 0 0h120c0 33.132-26.855 59.992-59.985 60C93.145 60.008 120 86.868 120 120H0c0-33.132 26.855-59.992 59.985-60z" fill="#227c9d"/></svg><svg><path transform="translate(1080, 600) scale(0.5)" d="M59.985 60C26.855 59.992 0 33.132 0 0h120c0 33.132-26.855 59.992-59.985 60C93.145 60.008 120 86.868 120 120H0c0-33.132 26.855-59.992 59.985-60z" fill="#ffcb77"/></svg><svg><path transform="translate(1080, 660) scale(0.5)" d="M60 59.985C60.008 26.855 86.868 0 120 0v120c-33.132 0-59.992-26.855-60-59.985C59.992 93.145 33.132 120 0 120V0c33.132 0 59.992 26.855 60 59.985z" fill="#ffcb77"/></svg><svg><path transform="translate(1080, 720) scale(0.5)" d="M60 59.985C60.008 26.855 86.868 0 120 0v120c-33.132 0-59.992-26.855-60-59.985C59.992 93.145 33.132 120 0 120V0c33.132 0 59.992 26.855 60 59.985z" fill="#17c3b2"/></svg><svg><path transform="translate(1080, 780) scale(0.5)" d="M60 59.985C60.008 26.855 86.868 0 120 0v120c-33.132 0-59.992-26.855-60-59.985C59.992 93.145 33.132 120 0 120V0c33.132 0 59.992 26.855 60 59.985z" fill="#17c3b2"/></svg><svg><path transform="translate(1080, 900) scale(0.5)" d="M60 59.985C60.008 26.855 86.868 0 120 0v120c-33.132 0-59.992-26.855-60-59.985C59.992 93.145 33.132 120 0 120V0c33.132 0 59.992 26.855 60 59.985z" fill="#227c9d"/></svg><svg><path transform="translate(1080, 960) scale(0.5)" d="M60 59.985C60.008 26.855 86.868 0 120 0v120c-33.132 0-59.992-26.855-60-59.985C59.992 93.145 33.132 120 0 120V0c33.132 0 59.992 26.855 60 59.985z" fill="#fef9ef"/></svg><svg><path transform="translate(1140, 0) scale(0.5)" d="M60 59.985C60.008 26.855 86.868 0 120 0v120c-33.132 0-59.992-26.855-60-59.985C59.992 93.145 33.132 120 0 120V0c33.132 0 59.992 26.855 60 59.985z" fill="#17c3b2"/></svg><svg><path transform="translate(1140, 60) scale(0.5)" d="M59.985 60C26.855 59.992 0 33.132 0 0h120c0 33.132-26.855 59.992-59.985 60C93.145 60.008 120 86.868 120 120H0c0-33.132 26.855-59.992 59.985-60z" fill="#fe6d73"/></svg><svg><path transform="translate(1140, 180) scale(0.5)" d="M60 59.985C60.008 26.855 86.868 0 120 0v120c-33.132 0-59.992-26.855-60-59.985C59.992 93.145 33.132 120 0 120V0c33.132 0 59.992 26.855 60 59.985z" fill="#227c9d"/></svg><svg><path transform="translate(1140, 240) scale(0.5)" d="M59.985 60C26.855 59.992 0 33.132 0 0h120c0 33.132-26.855 59.992-59.985 60C93.145 60.008 120 86.868 120 120H0c0-33.132 26.855-59.992 59.985-60z" fill="#fef9ef"/></svg><svg><path transform="translate(1140, 360) scale(0.5)" d="M60 59.985C60.008 26.855 86.868 0 120 0v120c-33.132 0-59.992-26.855-60-59.985C59.992 93.145 33.132 120 0 120V0c33.132 0 59.992 26.855 60 59.985z" fill="#ffcb77"/></svg><svg><path transform="translate(1140, 480) scale(0.5)" d="M59.985 60C26.855 59.992 0 33.132 0 0h120c0 33.132-26.855 59.992-59.985 60C93.145 60.008 120 86.868 120 120H0c0-33.132 26.855-59.992 59.985-60z" fill="#227c9d"/></svg><svg><path transform="translate(1140, 600) scale(0.5)" d="M59.985 60C26.855 59.992 0 33.132 0 0h120c0 33.132-26.855 59.992-59.985 60C93.145 60.008 120 86.868 120 120H0c0-33.132 26.855-59.992 59.985-60z" fill="#ffcb77"/></svg><svg><path transform="translate(1140, 660) scale(0.5)" d="M60 59.985C60.008 26.855 86.868 0 120 0v120c-33.132 0-59.992-26.855-60-59.985C59.992 93.145 33.132 120 0 120V0c33.132 0 59.992 26.855 60 59.985z" fill="#fef9ef"/></svg><svg><path transform="translate(1140, 720) scale(0.5)" d="M59.985 60C26.855 59.992 0 33.132 0 0h120c0 33.132-26.855 59.992-59.985 60C93.145 60.008 120 86.868 120 120H0c0-33.132 26.855-59.992 59.985-60z" fill="#227c9d"/></svg><svg><path transform="translate(1140, 780) scale(0.5)" d="M60 59.985C60.008 26.855 86.868 0 120 0v120c-33.132 0-59.992-26.855-60-59.985C59.992 93.145 33.132 120 0 120V0c33.132 0 59.992 26.855 60 59.985z" fill="#17c3b2"/></svg><svg><path transform="translate(1140, 840) scale(0.5)" d="M60 59.985C60.008 26.855 86.868 0 120 0v120c-33.132 0-59.992-26.855-60-59.985C59.992 93.145 33.132 120 0 120V0c33.132 0 59.992 26.855 60 59.985z" fill="#fef9ef"/></svg><svg><path transform="translate(1140, 900) scale(0.5)" d="M59.985 60C26.855 59.992 0 33.132 0 0h120c0 33.132-26.855 59.992-59.985 60C93.145 60.008 120 86.868 120 120H0c0-33.132 26.855-59.992 59.985-60z" fill="#fef9ef"/></svg><svg><path transform="translate(1140, 960) scale(0.5)" d="M59.985 60C26.855 59.992 0 33.132 0 0h120c0 33.132-26.855 59.992-59.985 60C93.145 60.008 120 86.868 120 120H0c0-33.132 26.855-59.992 59.985-60z" fill="#fef9ef"/></svg><svg><path transform="translate(1140, 1020) scale(0.5)" d="M59.985 60C26.855 59.992 0 33.132 0 0h120c0 33.132-26.855 59.992-59.985 60C93.145 60.008 120 86.868 120 120H0c0-33.132 26.855-59.992 59.985-60z" fill="#ffcb77"/></svg><svg><path transform="translate(1140, 1080) scale(0.5)" d="M59.985 60C26.855 59.992 0 33.132 0 0h120c0 33.132-26.855 59.992-59.985 60C93.145 60.008 120 86.868 120 120H0c0-33.132 26.855-59.992 59.985-60z" fill="#227c9d"/></svg><svg><path transform="translate(1140, 1140) scale(0.5)" d="M59.985 60C26.855 59.992 0 33.132 0 0h120c0 33.132-26.855 59.992-59.985 60C93.145 60.008 120 86.868 120 120H0c0-33.132 26.855-59.992 59.985-60z" fill="#fef9ef"/></svg></svg>