<svg id="visual" viewBox="0 0 900 600" width="900" height="600" xmlns="http://www.w3.org/2000/svg" xmlns:xlink="http://www.w3.org/1999/xlink" version="1.1"><rect x="0" y="0" width="900" height="600" fill="#001220"></rect><defs><linearGradient id="grad1_0" x1="33.3%" y1="0%" x2="100%" y2="100%"><stop offset="20%" stop-color="#001220" stop-opacity="1"></stop><stop offset="80%" stop-color="#001220" stop-opacity="1"></stop></linearGradient></defs><defs><linearGradient id="grad2_0" x1="0%" y1="0%" x2="66.7%" y2="100%"><stop offset="20%" stop-color="#001220" stop-opacity="1"></stop><stop offset="80%" stop-color="#001220" stop-opacity="1"></stop></linearGradient></defs><g transform="translate(900, 0)"><path d="M0 486.7C-42.7 431 -85.3 375.3 -149.2 360.3C-213.2 345.3 -298.3 371.1 -344.2 344.2C-390.1 317.2 -396.7 237.6 -413.9 171.4C-431.1 105.3 -458.9 52.6 -486.7 0L0 0Z" fill="#FBAE3C"></path></g><g transform="translate(0, 600)"><path d="M0 -486.7C65.4 -480.3 130.8 -473.8 185.2 -447.2C239.6 -420.5 283 -373.7 328.8 -328.8C374.6 -283.9 423 -240.8 449.7 -186.3C476.4 -131.8 481.6 -65.9 486.7 0L0 0Z" fill="#FBAE3C"></path></g></svg>